G75*
%MOIN*%
%OFA0B0*%
%FSLAX24Y24*%
%IPPOS*%
%LPD*%
%AMOC8*
5,1,8,0,0,1.08239X$1,22.5*
%
%ADD10OC8,0.0760*%
%ADD11R,0.0650X0.0650*%
%ADD12C,0.0650*%
%ADD13C,0.0740*%
%ADD14C,0.0705*%
%ADD15C,0.1185*%
%ADD16R,0.2000X0.0900*%
%ADD17C,0.0660*%
%ADD18R,0.0740X0.0740*%
%ADD19C,0.0400*%
%ADD20C,0.0160*%
%ADD21R,0.0591X0.0591*%
%ADD22C,0.0660*%
%ADD23C,0.0240*%
%ADD24C,0.0320*%
%ADD25C,0.0500*%
%ADD26R,0.0396X0.0396*%
%ADD27C,0.0118*%
D10*
X029788Y014885D03*
X030788Y014885D03*
X030788Y015885D03*
X029788Y015885D03*
X029788Y016885D03*
X029788Y017885D03*
X029788Y018885D03*
X030788Y018885D03*
X030788Y017885D03*
X030788Y016885D03*
D11*
X008485Y023712D03*
X005694Y025515D03*
D12*
X005694Y024515D03*
X007485Y023712D03*
D13*
X013214Y024696D03*
X013214Y025696D03*
X014178Y023483D03*
X018178Y023483D03*
X021151Y023683D03*
X022151Y023583D03*
X023151Y023683D03*
X024151Y023583D03*
X025151Y023683D03*
X026151Y023583D03*
X027151Y023683D03*
X028151Y023583D03*
X029151Y023683D03*
X030151Y023583D03*
X030178Y025519D03*
X031178Y025519D03*
X027796Y025145D03*
X025887Y026875D03*
X024887Y026975D03*
X023887Y026875D03*
X022887Y026975D03*
X021887Y026875D03*
X020887Y026975D03*
X021505Y028858D03*
X020505Y028958D03*
X022505Y028958D03*
X023796Y025145D03*
X012411Y028436D03*
X011411Y028436D03*
D14*
X002869Y025503D02*
X002164Y025503D01*
X002164Y023534D02*
X002869Y023534D01*
D15*
X019442Y024025D02*
X019442Y025210D01*
X032828Y024265D02*
X032828Y023080D01*
X034285Y023080D02*
X034285Y024265D01*
D16*
X034967Y014704D03*
X034967Y011224D03*
D17*
X011206Y025680D03*
X007206Y025680D03*
X006796Y027570D03*
X002796Y027570D03*
D18*
X010411Y028436D03*
D19*
X013214Y025696D02*
X013316Y025680D01*
X005859Y025680D02*
X005694Y025515D01*
X022151Y023583D02*
X022151Y018562D01*
X025977Y014735D01*
X029639Y014735D01*
X029788Y014885D01*
X029702Y015798D02*
X027316Y015798D01*
X024151Y018964D01*
X024151Y023583D01*
X024151Y024790D01*
X023796Y025145D01*
X025151Y024420D02*
X025151Y023683D01*
X025151Y024420D02*
X025426Y024696D01*
X026332Y024696D01*
X027907Y026271D01*
X029285Y026271D01*
X029324Y026310D02*
X030977Y026310D01*
X031096Y026192D02*
X031096Y025601D01*
X031178Y025519D02*
X033737Y025519D01*
X034363Y025326D01*
X034363Y023672D01*
X034285Y023672D02*
X034285Y019027D01*
X032907Y016861D01*
X030812Y016861D01*
X030899Y015995D02*
X033064Y015995D01*
X035387Y019420D01*
X035387Y025798D01*
X032592Y028594D01*
X032552Y028633D02*
X025269Y028633D01*
X024926Y028290D01*
X024887Y026975D01*
X024926Y026716D01*
X022202Y023634D02*
X022151Y023583D01*
X028655Y021153D02*
X028655Y020019D01*
X029788Y018885D01*
X030229Y019538D02*
X030229Y021034D01*
X030229Y019538D02*
X030741Y019027D01*
X028655Y021153D02*
X030111Y022964D01*
X030151Y023583D01*
X030899Y015995D02*
X030788Y015885D01*
X029788Y015885D02*
X029702Y015798D01*
D20*
X001062Y029529D02*
X000986Y002104D01*
X035497Y002027D01*
X035497Y010594D01*
X035047Y010594D01*
X035047Y011144D01*
X034887Y011144D01*
X033787Y011144D01*
X033787Y010750D01*
X033800Y010704D01*
X033823Y010663D01*
X033857Y010630D01*
X033898Y010606D01*
X033944Y010594D01*
X034887Y010594D01*
X034887Y011144D01*
X034887Y011304D01*
X034887Y011854D01*
X033944Y011854D01*
X033898Y011841D01*
X033857Y011818D01*
X033823Y011784D01*
X033800Y011743D01*
X033787Y011697D01*
X033787Y011304D01*
X034887Y011304D01*
X035047Y011304D01*
X035047Y011854D01*
X035497Y011854D01*
X035497Y014074D01*
X035047Y014074D01*
X035047Y014624D01*
X034887Y014624D01*
X033787Y014624D01*
X033787Y014230D01*
X033800Y014184D01*
X033823Y014143D01*
X033857Y014110D01*
X033898Y014086D01*
X033944Y014074D01*
X034887Y014074D01*
X034887Y014624D01*
X034887Y014784D01*
X034887Y015334D01*
X033944Y015334D01*
X033898Y015321D01*
X033857Y015298D01*
X033823Y015264D01*
X033800Y015223D01*
X033787Y015177D01*
X033787Y014784D01*
X034887Y014784D01*
X035047Y014784D01*
X035047Y015334D01*
X035497Y015334D01*
X035497Y018383D01*
X033660Y015674D01*
X033635Y015613D01*
X033586Y015564D01*
X033546Y015506D01*
X033492Y015470D01*
X033446Y015424D01*
X033381Y015397D01*
X033323Y015359D01*
X033258Y015346D01*
X033198Y015321D01*
X033128Y015321D01*
X033059Y015308D01*
X032995Y015321D01*
X031432Y015321D01*
X031288Y015177D01*
X031348Y015117D01*
X031348Y014913D01*
X030817Y014913D01*
X030817Y014857D01*
X031348Y014857D01*
X031348Y014653D01*
X031020Y014325D01*
X030817Y014325D01*
X030817Y014857D01*
X030760Y014857D01*
X030760Y014325D01*
X030557Y014325D01*
X030496Y014385D01*
X030142Y014031D01*
X029435Y014031D01*
X029404Y014062D01*
X025843Y014062D01*
X025596Y014164D01*
X021769Y017991D01*
X021580Y018180D01*
X021477Y018428D01*
X021477Y023063D01*
X021435Y023105D01*
X021399Y023192D01*
X021362Y023173D01*
X021279Y023146D01*
X021194Y023133D01*
X021171Y023133D01*
X021171Y023663D01*
X021131Y023663D01*
X021131Y023133D01*
X021107Y023133D01*
X021022Y023146D01*
X020940Y023173D01*
X020862Y023212D01*
X020792Y023263D01*
X020731Y023325D01*
X020680Y023395D01*
X020641Y023472D01*
X020614Y023554D01*
X020601Y023640D01*
X020601Y023663D01*
X021131Y023663D01*
X021131Y023703D01*
X021131Y024233D01*
X021107Y024233D01*
X021022Y024219D01*
X020940Y024193D01*
X020862Y024153D01*
X020792Y024102D01*
X020731Y024041D01*
X020680Y023971D01*
X020641Y023894D01*
X020614Y023812D01*
X020601Y023726D01*
X020601Y023703D01*
X021131Y023703D01*
X021171Y023703D01*
X021171Y024233D01*
X021194Y024233D01*
X021279Y024219D01*
X021362Y024193D01*
X021439Y024153D01*
X021490Y024116D01*
X021525Y024151D01*
X021525Y025226D01*
X021519Y025243D01*
X021525Y025343D01*
X021525Y025444D01*
X021532Y025461D01*
X021534Y025479D01*
X021577Y025569D01*
X021616Y025662D01*
X021629Y025675D01*
X021637Y025691D01*
X021712Y025758D01*
X021783Y025829D01*
X021800Y025836D01*
X022020Y026032D01*
X021719Y026032D01*
X021409Y026160D01*
X021172Y026397D01*
X021135Y026485D01*
X021098Y026466D01*
X021016Y026439D01*
X020930Y026425D01*
X020907Y026425D01*
X020907Y026955D01*
X020867Y026955D01*
X020867Y026425D01*
X020844Y026425D01*
X020758Y026439D01*
X020676Y026466D01*
X020599Y026505D01*
X020529Y026556D01*
X020467Y026617D01*
X020416Y026687D01*
X020377Y026764D01*
X020350Y026847D01*
X020337Y026932D01*
X020337Y026955D01*
X020867Y026955D01*
X020867Y026995D01*
X020337Y026995D01*
X020337Y027019D01*
X020350Y027104D01*
X020377Y027187D01*
X020416Y027264D01*
X020467Y027334D01*
X020529Y027395D01*
X020599Y027446D01*
X020676Y027485D01*
X020758Y027512D01*
X020844Y027525D01*
X020867Y027525D01*
X020867Y026995D01*
X020907Y026995D01*
X020907Y027525D01*
X020930Y027525D01*
X021016Y027512D01*
X021098Y027485D01*
X021175Y027446D01*
X021227Y027408D01*
X021409Y027591D01*
X021719Y027719D01*
X022055Y027719D01*
X022180Y027667D01*
X022193Y028174D01*
X022067Y028227D01*
X021983Y028143D01*
X021673Y028015D01*
X021337Y028015D01*
X021027Y028143D01*
X020943Y028227D01*
X020673Y028115D01*
X020337Y028115D01*
X020241Y028155D01*
X016919Y028155D01*
X014074Y025409D01*
X013997Y025225D01*
X013934Y025161D01*
X014052Y024875D01*
X014488Y024565D01*
X014537Y024544D01*
X014589Y024492D01*
X014649Y024449D01*
X018670Y024449D01*
X018670Y024537D02*
X018670Y023974D01*
X018683Y023874D01*
X018709Y023776D01*
X018748Y023682D01*
X018798Y023595D01*
X018860Y023514D01*
X018932Y023443D01*
X019012Y023381D01*
X019100Y023330D01*
X019193Y023292D01*
X019291Y023265D01*
X019362Y023256D01*
X019362Y024537D01*
X019522Y024537D01*
X019522Y023256D01*
X019593Y023265D01*
X019691Y023292D01*
X019784Y023330D01*
X019872Y023381D01*
X019952Y023443D01*
X020024Y023514D01*
X020086Y023595D01*
X020136Y023682D01*
X020175Y023776D01*
X020201Y023874D01*
X020215Y023974D01*
X020215Y024537D01*
X019522Y024537D01*
X019522Y024697D01*
X020215Y024697D01*
X020215Y025260D01*
X020201Y025361D01*
X020175Y025458D01*
X020136Y025552D01*
X020086Y025640D01*
X020024Y025720D01*
X019952Y025792D01*
X019872Y025853D01*
X019784Y025904D01*
X019691Y025943D01*
X019593Y025969D01*
X019522Y025978D01*
X019522Y024697D01*
X019362Y024697D01*
X019362Y024537D01*
X018670Y024537D01*
X018670Y024697D02*
X019362Y024697D01*
X019362Y025978D01*
X019291Y025969D01*
X019193Y025943D01*
X019100Y025904D01*
X019012Y025853D01*
X018932Y025792D01*
X018860Y025720D01*
X018798Y025640D01*
X018748Y025552D01*
X018709Y025458D01*
X018683Y025361D01*
X018670Y025260D01*
X018670Y024697D01*
X018670Y024766D02*
X014206Y024766D01*
X014032Y024925D02*
X018670Y024925D01*
X018670Y025083D02*
X013967Y025083D01*
X014004Y025242D02*
X018670Y025242D01*
X018693Y025400D02*
X014070Y025400D01*
X014229Y025559D02*
X018751Y025559D01*
X018858Y025717D02*
X014393Y025717D01*
X014557Y025876D02*
X019050Y025876D01*
X019362Y025876D02*
X019522Y025876D01*
X019522Y025717D02*
X019362Y025717D01*
X019362Y025559D02*
X019522Y025559D01*
X019522Y025400D02*
X019362Y025400D01*
X019362Y025242D02*
X019522Y025242D01*
X019522Y025083D02*
X019362Y025083D01*
X019362Y024925D02*
X019522Y024925D01*
X019522Y024766D02*
X019362Y024766D01*
X019362Y024608D02*
X014428Y024608D01*
X014649Y024449D02*
X014678Y024404D01*
X014715Y024366D01*
X014744Y024298D01*
X014783Y024235D01*
X014791Y024182D01*
X014812Y024133D01*
X014812Y024059D01*
X014815Y024039D01*
X014893Y023961D01*
X015022Y023651D01*
X015022Y023315D01*
X014893Y023005D01*
X014656Y022768D01*
X014346Y022640D01*
X014010Y022640D01*
X013700Y022768D01*
X013463Y023005D01*
X013335Y023315D01*
X013335Y023651D01*
X013392Y023790D01*
X013305Y023852D01*
X013046Y023852D01*
X012736Y023981D01*
X012498Y024218D01*
X012370Y024528D01*
X012370Y024864D01*
X012375Y024876D01*
X011974Y024876D01*
X011887Y024666D01*
X011661Y024440D01*
X010252Y023030D01*
X009956Y022908D01*
X008325Y022908D01*
X008313Y022913D01*
X008066Y022913D01*
X007892Y022985D01*
X007759Y023118D01*
X007702Y023255D01*
X007679Y023244D01*
X007604Y023219D01*
X007525Y023207D01*
X007485Y023207D01*
X007485Y023712D01*
X007485Y024217D01*
X007446Y024217D01*
X007367Y024204D01*
X007291Y024180D01*
X007221Y024144D01*
X007156Y024097D01*
X007100Y024041D01*
X007053Y023976D01*
X007017Y023905D01*
X006993Y023830D01*
X006980Y023751D01*
X006980Y023712D01*
X007485Y023712D01*
X007485Y023712D01*
X007485Y023712D01*
X007485Y024217D01*
X007525Y024217D01*
X007604Y024204D01*
X007679Y024180D01*
X007702Y024168D01*
X007759Y024305D01*
X007892Y024438D01*
X008066Y024510D01*
X008313Y024510D01*
X008325Y024515D01*
X009463Y024515D01*
X010402Y025454D01*
X010402Y025840D01*
X010524Y026135D01*
X010751Y026361D01*
X011046Y026484D01*
X012414Y026484D01*
X012421Y027592D01*
X012243Y027592D01*
X011933Y027721D01*
X011695Y027958D01*
X011693Y027963D01*
X011622Y027926D01*
X011539Y027900D01*
X011454Y027886D01*
X011429Y027886D01*
X011429Y028418D01*
X011392Y028418D01*
X011392Y027886D01*
X011367Y027886D01*
X011282Y027900D01*
X011231Y027916D01*
X011182Y027798D01*
X011049Y027664D01*
X010875Y027592D01*
X009946Y027592D01*
X009850Y027632D01*
X008114Y027632D01*
X007341Y026978D01*
X007252Y026889D01*
X007252Y026889D01*
X006847Y026484D01*
X007366Y026484D01*
X007661Y026361D01*
X007887Y026135D01*
X008009Y025840D01*
X008009Y025520D01*
X007887Y025225D01*
X007661Y024999D01*
X007366Y024876D01*
X006376Y024876D01*
X006287Y024788D01*
X006150Y024731D01*
X006162Y024709D01*
X006187Y024633D01*
X006199Y024555D01*
X006199Y024515D01*
X005694Y024515D01*
X005694Y024515D01*
X005694Y024515D01*
X005189Y024515D01*
X005189Y024555D01*
X005201Y024633D01*
X005226Y024709D01*
X005238Y024731D01*
X005101Y024788D01*
X004967Y024921D01*
X004895Y025096D01*
X004895Y025343D01*
X004890Y025355D01*
X004890Y026627D01*
X005013Y026923D01*
X005239Y027149D01*
X006115Y028025D01*
X006115Y028025D01*
X006139Y028050D01*
X006155Y028080D01*
X006252Y028162D01*
X006341Y028251D01*
X006373Y028264D01*
X007275Y029028D01*
X007365Y029117D01*
X007397Y029131D01*
X007423Y029153D01*
X007543Y029191D01*
X007660Y029240D01*
X007695Y029240D01*
X007727Y029250D01*
X007853Y029240D01*
X009850Y029240D01*
X009946Y029280D01*
X010875Y029280D01*
X011049Y029208D01*
X011182Y029074D01*
X011231Y028956D01*
X011282Y028972D01*
X011367Y028986D01*
X011392Y028986D01*
X011392Y028454D01*
X011429Y028454D01*
X011429Y028986D01*
X011454Y028986D01*
X011539Y028972D01*
X011622Y028946D01*
X011693Y028909D01*
X011695Y028914D01*
X011933Y029151D01*
X012243Y029280D01*
X012578Y029280D01*
X012675Y029240D01*
X013072Y029240D01*
X013074Y029241D01*
X013232Y029240D01*
X013389Y029240D01*
X013391Y029239D01*
X013394Y029239D01*
X013539Y029178D01*
X013685Y029117D01*
X013686Y029116D01*
X013689Y029115D01*
X013799Y029003D01*
X013911Y028891D01*
X013912Y028889D01*
X013913Y028887D01*
X015363Y028887D01*
X015199Y028729D02*
X013978Y028729D01*
X013973Y028741D02*
X013913Y028887D01*
X013973Y028741D02*
X014033Y028596D01*
X014033Y028593D01*
X014034Y028591D01*
X014033Y028434D01*
X014033Y028276D01*
X014032Y028274D01*
X014028Y027599D01*
X015977Y029479D01*
X001062Y029529D01*
X001062Y029521D02*
X003515Y029521D01*
X002956Y028374D02*
X002636Y028374D01*
X002341Y028251D01*
X002115Y028025D01*
X001993Y027730D01*
X001993Y026326D01*
X001696Y026203D01*
X001464Y025971D01*
X001338Y025667D01*
X001338Y025339D01*
X001464Y025035D01*
X001696Y024803D01*
X002000Y024677D01*
X003034Y024677D01*
X003337Y024803D01*
X003570Y025035D01*
X003696Y025339D01*
X003696Y025667D01*
X003600Y025898D01*
X003600Y027410D01*
X003600Y027730D01*
X003478Y028025D01*
X003252Y028251D01*
X002956Y028374D01*
X003247Y028253D02*
X006345Y028253D01*
X006172Y028095D02*
X003408Y028095D01*
X003515Y027936D02*
X006026Y027936D01*
X005867Y027778D02*
X003580Y027778D01*
X003600Y027619D02*
X005709Y027619D01*
X005550Y027461D02*
X003600Y027461D01*
X003600Y027302D02*
X005392Y027302D01*
X005233Y027144D02*
X003600Y027144D01*
X003600Y026985D02*
X005075Y026985D01*
X004973Y026827D02*
X003600Y026827D01*
X003600Y026668D02*
X004907Y026668D01*
X004890Y026510D02*
X003600Y026510D01*
X003600Y026351D02*
X004890Y026351D01*
X004890Y026193D02*
X003600Y026193D01*
X003600Y026034D02*
X004890Y026034D01*
X004890Y025876D02*
X003609Y025876D01*
X003675Y025717D02*
X004890Y025717D01*
X004890Y025559D02*
X003696Y025559D01*
X003696Y025400D02*
X004890Y025400D01*
X004895Y025242D02*
X003655Y025242D01*
X003590Y025083D02*
X004900Y025083D01*
X004966Y024925D02*
X003459Y024925D01*
X003249Y024766D02*
X005154Y024766D01*
X005197Y024608D02*
X001049Y024608D01*
X001049Y024766D02*
X001784Y024766D01*
X001574Y024925D02*
X001050Y024925D01*
X001050Y025083D02*
X001444Y025083D01*
X001378Y025242D02*
X001051Y025242D01*
X001051Y025400D02*
X001338Y025400D01*
X001338Y025559D02*
X001051Y025559D01*
X001052Y025717D02*
X001359Y025717D01*
X001424Y025876D02*
X001052Y025876D01*
X001053Y026034D02*
X001527Y026034D01*
X001685Y026193D02*
X001053Y026193D01*
X001054Y026351D02*
X001993Y026351D01*
X001993Y026510D02*
X001054Y026510D01*
X001054Y026668D02*
X001993Y026668D01*
X001993Y026827D02*
X001055Y026827D01*
X001055Y026985D02*
X001993Y026985D01*
X001993Y027144D02*
X001056Y027144D01*
X001056Y027302D02*
X001993Y027302D01*
X001993Y027461D02*
X001057Y027461D01*
X001057Y027619D02*
X001993Y027619D01*
X002012Y027778D02*
X001058Y027778D01*
X001058Y027936D02*
X002078Y027936D01*
X002184Y028095D02*
X001058Y028095D01*
X001059Y028253D02*
X002345Y028253D01*
X001059Y028412D02*
X006547Y028412D01*
X006734Y028570D02*
X001060Y028570D01*
X001060Y028729D02*
X006921Y028729D01*
X007109Y028887D02*
X001061Y028887D01*
X001061Y029046D02*
X007293Y029046D01*
X007574Y029204D02*
X001062Y029204D01*
X001062Y029363D02*
X015856Y029363D01*
X015692Y029204D02*
X013476Y029204D01*
X013757Y029046D02*
X015528Y029046D01*
X015035Y028570D02*
X014034Y028570D01*
X014033Y028412D02*
X014871Y028412D01*
X014706Y028253D02*
X014032Y028253D01*
X014031Y028095D02*
X014542Y028095D01*
X014378Y027936D02*
X014030Y027936D01*
X014029Y027778D02*
X014214Y027778D01*
X014049Y027619D02*
X014028Y027619D01*
X015379Y026668D02*
X020430Y026668D01*
X020357Y026827D02*
X015543Y026827D01*
X015707Y026985D02*
X020867Y026985D01*
X020867Y026827D02*
X020907Y026827D01*
X020907Y026668D02*
X020867Y026668D01*
X020867Y026510D02*
X020907Y026510D01*
X020592Y026510D02*
X015214Y026510D01*
X015050Y026351D02*
X021218Y026351D01*
X021377Y026193D02*
X014886Y026193D01*
X014722Y026034D02*
X021713Y026034D01*
X021844Y025876D02*
X019834Y025876D01*
X020026Y025717D02*
X021666Y025717D01*
X021572Y025559D02*
X020133Y025559D01*
X020191Y025400D02*
X021525Y025400D01*
X021520Y025242D02*
X020215Y025242D01*
X020215Y025083D02*
X021525Y025083D01*
X021525Y024925D02*
X020215Y024925D01*
X020215Y024766D02*
X021525Y024766D01*
X021525Y024608D02*
X019522Y024608D01*
X019522Y024449D02*
X019362Y024449D01*
X019362Y024291D02*
X019522Y024291D01*
X019522Y024132D02*
X019362Y024132D01*
X019362Y023974D02*
X019522Y023974D01*
X019522Y023815D02*
X019362Y023815D01*
X019362Y023657D02*
X019522Y023657D01*
X019522Y023498D02*
X019362Y023498D01*
X019362Y023340D02*
X019522Y023340D01*
X019800Y023340D02*
X020720Y023340D01*
X020632Y023498D02*
X020008Y023498D01*
X020121Y023657D02*
X020601Y023657D01*
X020615Y023815D02*
X020186Y023815D01*
X020214Y023974D02*
X020682Y023974D01*
X020833Y024132D02*
X020215Y024132D01*
X020215Y024291D02*
X021525Y024291D01*
X021525Y024449D02*
X020215Y024449D01*
X021131Y024132D02*
X021171Y024132D01*
X021171Y023974D02*
X021131Y023974D01*
X021131Y023815D02*
X021171Y023815D01*
X021171Y023657D02*
X021131Y023657D01*
X021131Y023498D02*
X021171Y023498D01*
X021171Y023340D02*
X021131Y023340D01*
X021131Y023181D02*
X021171Y023181D01*
X021377Y023181D02*
X021404Y023181D01*
X021477Y023023D02*
X018480Y023023D01*
X018466Y023013D02*
X018537Y023064D01*
X018598Y023125D01*
X018649Y023195D01*
X018688Y023272D01*
X018715Y023354D01*
X018728Y023440D01*
X018728Y023475D01*
X018187Y023475D01*
X018187Y023492D01*
X018728Y023492D01*
X018728Y023527D01*
X018715Y023612D01*
X018688Y023694D01*
X018649Y023772D01*
X018598Y023842D01*
X018537Y023903D01*
X018466Y023954D01*
X018389Y023993D01*
X018307Y024020D01*
X018222Y024033D01*
X018187Y024033D01*
X018187Y023492D01*
X018170Y023492D01*
X018170Y024033D01*
X018135Y024033D01*
X018049Y024020D01*
X017967Y023993D01*
X017890Y023954D01*
X017820Y023903D01*
X017759Y023842D01*
X017708Y023772D01*
X017669Y023694D01*
X017642Y023612D01*
X017628Y023527D01*
X017628Y023492D01*
X018170Y023492D01*
X018170Y023475D01*
X018187Y023475D01*
X018187Y022933D01*
X018222Y022933D01*
X018307Y022947D01*
X018389Y022974D01*
X018466Y023013D01*
X018638Y023181D02*
X020924Y023181D01*
X021477Y022864D02*
X014752Y022864D01*
X014901Y023023D02*
X017877Y023023D01*
X017890Y023013D02*
X017967Y022974D01*
X018049Y022947D01*
X018135Y022933D01*
X018170Y022933D01*
X018170Y023475D01*
X017628Y023475D01*
X017628Y023440D01*
X017642Y023354D01*
X017669Y023272D01*
X017708Y023195D01*
X017759Y023125D01*
X017820Y023064D01*
X017890Y023013D01*
X017718Y023181D02*
X014966Y023181D01*
X015022Y023340D02*
X017647Y023340D01*
X017628Y023498D02*
X015022Y023498D01*
X015020Y023657D02*
X017656Y023657D01*
X017739Y023815D02*
X014954Y023815D01*
X014881Y023974D02*
X017929Y023974D01*
X018170Y023974D02*
X018187Y023974D01*
X018170Y023815D02*
X018187Y023815D01*
X018170Y023657D02*
X018187Y023657D01*
X018170Y023498D02*
X018187Y023498D01*
X018170Y023340D02*
X018187Y023340D01*
X018170Y023181D02*
X018187Y023181D01*
X018170Y023023D02*
X018187Y023023D01*
X018710Y023340D02*
X019084Y023340D01*
X018876Y023498D02*
X018728Y023498D01*
X018700Y023657D02*
X018763Y023657D01*
X018698Y023815D02*
X018617Y023815D01*
X018670Y023974D02*
X018428Y023974D01*
X018670Y024132D02*
X014812Y024132D01*
X014748Y024291D02*
X018670Y024291D01*
X021468Y024132D02*
X021507Y024132D01*
X021477Y022706D02*
X014505Y022706D01*
X013851Y022706D02*
X001043Y022706D01*
X001044Y022864D02*
X013604Y022864D01*
X013456Y023023D02*
X010233Y023023D01*
X010402Y023181D02*
X013390Y023181D01*
X013335Y023340D02*
X010561Y023340D01*
X010719Y023498D02*
X013335Y023498D01*
X013337Y023657D02*
X010878Y023657D01*
X011036Y023815D02*
X013357Y023815D01*
X012753Y023974D02*
X011195Y023974D01*
X011353Y024132D02*
X012584Y024132D01*
X012468Y024291D02*
X011512Y024291D01*
X011670Y024449D02*
X012403Y024449D01*
X012370Y024608D02*
X011829Y024608D01*
X011929Y024766D02*
X012370Y024766D01*
X012415Y026510D02*
X006873Y026510D01*
X007031Y026668D02*
X012416Y026668D01*
X012416Y026827D02*
X007190Y026827D01*
X007349Y026985D02*
X012417Y026985D01*
X012418Y027144D02*
X007537Y027144D01*
X007724Y027302D02*
X012419Y027302D01*
X012420Y027461D02*
X007911Y027461D01*
X008099Y027619D02*
X009882Y027619D01*
X010939Y027619D02*
X012178Y027619D01*
X011876Y027778D02*
X011162Y027778D01*
X011392Y027936D02*
X011429Y027936D01*
X011429Y028095D02*
X011392Y028095D01*
X011392Y028253D02*
X011429Y028253D01*
X011429Y028412D02*
X011392Y028412D01*
X011392Y028570D02*
X011429Y028570D01*
X011429Y028729D02*
X011392Y028729D01*
X011392Y028887D02*
X011429Y028887D01*
X011194Y029046D02*
X011827Y029046D01*
X012060Y029204D02*
X011052Y029204D01*
X011641Y027936D02*
X011717Y027936D01*
X010740Y026351D02*
X007671Y026351D01*
X007830Y026193D02*
X010582Y026193D01*
X010482Y026034D02*
X007929Y026034D01*
X007995Y025876D02*
X010417Y025876D01*
X010402Y025717D02*
X008009Y025717D01*
X008009Y025559D02*
X010402Y025559D01*
X010348Y025400D02*
X007960Y025400D01*
X007894Y025242D02*
X010190Y025242D01*
X010031Y025083D02*
X007745Y025083D01*
X007482Y024925D02*
X009873Y024925D01*
X009714Y024766D02*
X006234Y024766D01*
X006191Y024608D02*
X009556Y024608D01*
X007918Y024449D02*
X006195Y024449D01*
X006199Y024475D02*
X006199Y024515D01*
X005694Y024515D01*
X005189Y024515D01*
X005189Y024475D01*
X005201Y024397D01*
X005226Y024321D01*
X005262Y024250D01*
X005309Y024186D01*
X005365Y024130D01*
X005429Y024083D01*
X005500Y024047D01*
X005576Y024022D01*
X005654Y024010D01*
X005694Y024010D01*
X005734Y024010D01*
X005812Y024022D01*
X005888Y024047D01*
X005959Y024083D01*
X006023Y024130D01*
X006079Y024186D01*
X006126Y024250D01*
X006162Y024321D01*
X006187Y024397D01*
X006199Y024475D01*
X006146Y024291D02*
X007753Y024291D01*
X007485Y024132D02*
X007485Y024132D01*
X007485Y023974D02*
X007485Y023974D01*
X007485Y023815D02*
X007485Y023815D01*
X007485Y023712D02*
X006980Y023712D01*
X006980Y023672D01*
X006993Y023593D01*
X007017Y023518D01*
X007053Y023447D01*
X007100Y023383D01*
X007156Y023326D01*
X007221Y023280D01*
X007291Y023244D01*
X007367Y023219D01*
X007446Y023207D01*
X007485Y023207D01*
X007485Y023712D01*
X007485Y023712D01*
X007485Y023657D02*
X007485Y023657D01*
X007485Y023498D02*
X007485Y023498D01*
X007485Y023340D02*
X007485Y023340D01*
X007733Y023181D02*
X003269Y023181D01*
X003275Y023188D02*
X003325Y023255D01*
X003363Y023330D01*
X003389Y023410D01*
X003402Y023493D01*
X003402Y023497D01*
X002554Y023497D01*
X002554Y023002D01*
X002911Y023002D01*
X002994Y023015D01*
X003074Y023041D01*
X003148Y023079D01*
X003216Y023128D01*
X003275Y023188D01*
X003366Y023340D02*
X007143Y023340D01*
X007027Y023498D02*
X002554Y023498D01*
X002554Y023497D02*
X002554Y023572D01*
X002479Y023572D01*
X002479Y023497D01*
X001632Y023497D01*
X001632Y023493D01*
X001645Y023410D01*
X001671Y023330D01*
X001709Y023255D01*
X001758Y023188D01*
X001817Y023128D01*
X001885Y023079D01*
X001960Y023041D01*
X002040Y023015D01*
X002122Y023002D01*
X002479Y023002D01*
X002479Y023497D01*
X002554Y023497D01*
X002479Y023498D02*
X001046Y023498D01*
X001045Y023340D02*
X001668Y023340D01*
X001765Y023181D02*
X001045Y023181D01*
X001044Y023023D02*
X002017Y023023D01*
X002479Y023023D02*
X002554Y023023D01*
X002554Y023181D02*
X002479Y023181D01*
X002479Y023340D02*
X002554Y023340D01*
X002554Y023572D02*
X003402Y023572D01*
X003402Y023576D01*
X003389Y023659D01*
X003363Y023739D01*
X003325Y023814D01*
X003275Y023881D01*
X003216Y023941D01*
X003148Y023990D01*
X003074Y024028D01*
X002994Y024054D01*
X002911Y024067D01*
X002554Y024067D01*
X002554Y023572D01*
X002479Y023572D02*
X002479Y024067D01*
X002122Y024067D01*
X002040Y024054D01*
X001960Y024028D01*
X001885Y023990D01*
X001817Y023941D01*
X001758Y023881D01*
X001709Y023814D01*
X001671Y023739D01*
X001645Y023659D01*
X001632Y023576D01*
X001632Y023572D01*
X002479Y023572D01*
X002479Y023657D02*
X002554Y023657D01*
X002554Y023815D02*
X002479Y023815D01*
X002479Y023974D02*
X002554Y023974D01*
X003171Y023974D02*
X007052Y023974D01*
X006990Y023815D02*
X003324Y023815D01*
X003389Y023657D02*
X006983Y023657D01*
X007205Y024132D02*
X006025Y024132D01*
X005694Y024132D02*
X005694Y024132D01*
X005694Y024010D02*
X005694Y024515D01*
X005694Y024515D01*
X005694Y024010D01*
X005694Y024291D02*
X005694Y024291D01*
X005694Y024449D02*
X005694Y024449D01*
X005363Y024132D02*
X001047Y024132D01*
X001047Y023974D02*
X001863Y023974D01*
X001710Y023815D02*
X001047Y023815D01*
X001046Y023657D02*
X001645Y023657D01*
X001048Y024291D02*
X005241Y024291D01*
X005193Y024449D02*
X001048Y024449D01*
X003017Y023023D02*
X007854Y023023D01*
X004008Y021766D02*
X004083Y021484D01*
X004083Y021191D01*
X004008Y020909D01*
X003862Y020656D01*
X003655Y020449D01*
X003402Y020303D01*
X003120Y020228D01*
X002827Y020228D01*
X002545Y020303D01*
X002292Y020449D01*
X002085Y020656D01*
X001939Y020909D01*
X001864Y021191D01*
X001864Y021484D01*
X001939Y021766D01*
X002085Y022019D01*
X002292Y022226D01*
X002545Y022372D01*
X002827Y022448D01*
X003120Y022448D01*
X003402Y022372D01*
X003655Y022226D01*
X003862Y022019D01*
X004008Y021766D01*
X004011Y021755D02*
X021477Y021755D01*
X021477Y021913D02*
X003923Y021913D01*
X003809Y022072D02*
X021477Y022072D01*
X021477Y022230D02*
X003648Y022230D01*
X003340Y022389D02*
X021477Y022389D01*
X021477Y022547D02*
X001043Y022547D01*
X001043Y022389D02*
X002607Y022389D01*
X002299Y022230D02*
X001042Y022230D01*
X001042Y022072D02*
X002138Y022072D01*
X002024Y021913D02*
X001041Y021913D01*
X001041Y021755D02*
X001936Y021755D01*
X001894Y021596D02*
X001040Y021596D01*
X001040Y021438D02*
X001864Y021438D01*
X001864Y021279D02*
X001040Y021279D01*
X001039Y021121D02*
X001883Y021121D01*
X001925Y020962D02*
X001039Y020962D01*
X001038Y020804D02*
X002000Y020804D01*
X002096Y020645D02*
X001038Y020645D01*
X001037Y020487D02*
X002255Y020487D01*
X002502Y020328D02*
X001037Y020328D01*
X001036Y020170D02*
X021477Y020170D01*
X021477Y020328D02*
X003445Y020328D01*
X003692Y020487D02*
X021477Y020487D01*
X021477Y020645D02*
X003851Y020645D01*
X003947Y020804D02*
X021477Y020804D01*
X021477Y020962D02*
X004022Y020962D01*
X004064Y021121D02*
X021477Y021121D01*
X021477Y021279D02*
X004083Y021279D01*
X004083Y021438D02*
X021477Y021438D01*
X021477Y021596D02*
X004053Y021596D01*
X001036Y020011D02*
X021477Y020011D01*
X021477Y019853D02*
X001036Y019853D01*
X001035Y019694D02*
X021477Y019694D01*
X021477Y019536D02*
X001035Y019536D01*
X001034Y019377D02*
X021477Y019377D01*
X021477Y019219D02*
X001034Y019219D01*
X001033Y019060D02*
X021477Y019060D01*
X021477Y018902D02*
X001033Y018902D01*
X001032Y018743D02*
X021477Y018743D01*
X021477Y018585D02*
X001032Y018585D01*
X001032Y018426D02*
X021478Y018426D01*
X021543Y018268D02*
X001031Y018268D01*
X001031Y018109D02*
X021651Y018109D01*
X021809Y017951D02*
X001030Y017951D01*
X001030Y017792D02*
X021968Y017792D01*
X022126Y017634D02*
X001029Y017634D01*
X001029Y017475D02*
X022285Y017475D01*
X022443Y017317D02*
X001029Y017317D01*
X001028Y017158D02*
X022602Y017158D01*
X022760Y017000D02*
X001028Y017000D01*
X001027Y016841D02*
X022919Y016841D01*
X023077Y016683D02*
X001027Y016683D01*
X001026Y016524D02*
X023236Y016524D01*
X023394Y016366D02*
X001026Y016366D01*
X001025Y016207D02*
X023553Y016207D01*
X023711Y016049D02*
X001025Y016049D01*
X001025Y015890D02*
X023870Y015890D01*
X024028Y015732D02*
X001024Y015732D01*
X001024Y015573D02*
X024187Y015573D01*
X024345Y015415D02*
X001023Y015415D01*
X001023Y015256D02*
X024504Y015256D01*
X024662Y015098D02*
X001022Y015098D01*
X001022Y014939D02*
X024821Y014939D01*
X024979Y014781D02*
X001021Y014781D01*
X001021Y014622D02*
X025138Y014622D01*
X025296Y014464D02*
X001021Y014464D01*
X001020Y014305D02*
X025455Y014305D01*
X025638Y014147D02*
X001020Y014147D01*
X001019Y013988D02*
X035497Y013988D01*
X035497Y013830D02*
X001019Y013830D01*
X001018Y013671D02*
X035497Y013671D01*
X035497Y013513D02*
X001018Y013513D01*
X001018Y013354D02*
X035497Y013354D01*
X035497Y013196D02*
X001017Y013196D01*
X001017Y013037D02*
X035497Y013037D01*
X035497Y012879D02*
X001016Y012879D01*
X001016Y012720D02*
X035497Y012720D01*
X035497Y012562D02*
X001015Y012562D01*
X001015Y012403D02*
X035497Y012403D01*
X035497Y012245D02*
X001014Y012245D01*
X001014Y012086D02*
X035497Y012086D01*
X035497Y011928D02*
X001014Y011928D01*
X001013Y011769D02*
X033815Y011769D01*
X033787Y011611D02*
X001013Y011611D01*
X001012Y011452D02*
X033787Y011452D01*
X033787Y011135D02*
X001011Y011135D01*
X001011Y010977D02*
X033787Y010977D01*
X033787Y010818D02*
X001011Y010818D01*
X001010Y010660D02*
X033827Y010660D01*
X034887Y010660D02*
X035047Y010660D01*
X035047Y010818D02*
X034887Y010818D01*
X034887Y010977D02*
X035047Y010977D01*
X035047Y011135D02*
X034887Y011135D01*
X034887Y011294D02*
X001012Y011294D01*
X001010Y010501D02*
X035497Y010501D01*
X035497Y010343D02*
X001009Y010343D01*
X001009Y010184D02*
X035497Y010184D01*
X035497Y010026D02*
X001008Y010026D01*
X001008Y009867D02*
X035497Y009867D01*
X035497Y009709D02*
X001007Y009709D01*
X001007Y009550D02*
X035497Y009550D01*
X035497Y009392D02*
X001007Y009392D01*
X001006Y009233D02*
X035497Y009233D01*
X035497Y009075D02*
X001006Y009075D01*
X001005Y008916D02*
X035497Y008916D01*
X035497Y008758D02*
X001005Y008758D01*
X001004Y008599D02*
X035497Y008599D01*
X035497Y008441D02*
X001004Y008441D01*
X001003Y008282D02*
X035497Y008282D01*
X035497Y008124D02*
X001003Y008124D01*
X001003Y007965D02*
X035497Y007965D01*
X035497Y007807D02*
X001002Y007807D01*
X001002Y007648D02*
X035497Y007648D01*
X035497Y007490D02*
X001001Y007490D01*
X001001Y007331D02*
X035497Y007331D01*
X035497Y007173D02*
X001000Y007173D01*
X001000Y007014D02*
X035497Y007014D01*
X035497Y006856D02*
X001000Y006856D01*
X000999Y006697D02*
X035497Y006697D01*
X035497Y006539D02*
X000999Y006539D01*
X000998Y006380D02*
X035497Y006380D01*
X035497Y006222D02*
X000998Y006222D01*
X000997Y006063D02*
X035497Y006063D01*
X035497Y005905D02*
X000997Y005905D01*
X000996Y005746D02*
X035497Y005746D01*
X035497Y005588D02*
X000996Y005588D01*
X000996Y005429D02*
X035497Y005429D01*
X035497Y005271D02*
X000995Y005271D01*
X000995Y005112D02*
X035497Y005112D01*
X035497Y004954D02*
X000994Y004954D01*
X000994Y004795D02*
X002772Y004795D01*
X002827Y004810D02*
X002545Y004734D01*
X002292Y004588D01*
X002085Y004381D01*
X001939Y004128D01*
X001864Y003846D01*
X001864Y003554D01*
X001939Y003271D01*
X002085Y003018D01*
X002292Y002812D01*
X002545Y002666D01*
X002827Y002590D01*
X003120Y002590D01*
X003402Y002666D01*
X003655Y002812D01*
X003862Y003018D01*
X004008Y003271D01*
X004083Y003554D01*
X004083Y003846D01*
X004008Y004128D01*
X003862Y004381D01*
X003655Y004588D01*
X003402Y004734D01*
X003120Y004810D01*
X002827Y004810D01*
X003175Y004795D02*
X031926Y004795D01*
X031981Y004810D02*
X031699Y004734D01*
X031446Y004588D01*
X031239Y004381D01*
X031093Y004128D01*
X031017Y003846D01*
X031017Y003554D01*
X031093Y003271D01*
X031239Y003018D01*
X031446Y002812D01*
X031699Y002666D01*
X031981Y002590D01*
X032273Y002590D01*
X032555Y002666D01*
X032809Y002812D01*
X033015Y003018D01*
X033161Y003271D01*
X033237Y003554D01*
X033237Y003846D01*
X033161Y004128D01*
X033015Y004381D01*
X032809Y004588D01*
X032555Y004734D01*
X032273Y004810D01*
X031981Y004810D01*
X032328Y004795D02*
X035497Y004795D01*
X035497Y004637D02*
X032724Y004637D01*
X032919Y004478D02*
X035497Y004478D01*
X035497Y004320D02*
X033051Y004320D01*
X033142Y004161D02*
X035497Y004161D01*
X035497Y004003D02*
X033195Y004003D01*
X033237Y003844D02*
X035497Y003844D01*
X035497Y003686D02*
X033237Y003686D01*
X033230Y003527D02*
X035497Y003527D01*
X035497Y003369D02*
X033187Y003369D01*
X033126Y003210D02*
X035497Y003210D01*
X035497Y003052D02*
X033034Y003052D01*
X032890Y002893D02*
X035497Y002893D01*
X035497Y002735D02*
X032675Y002735D01*
X031579Y002735D02*
X003521Y002735D01*
X003736Y002893D02*
X031364Y002893D01*
X031220Y003052D02*
X003881Y003052D01*
X003972Y003210D02*
X031128Y003210D01*
X031067Y003369D02*
X004034Y003369D01*
X004076Y003527D02*
X031024Y003527D01*
X031017Y003686D02*
X004083Y003686D01*
X004083Y003844D02*
X031017Y003844D01*
X031059Y004003D02*
X004041Y004003D01*
X003989Y004161D02*
X031112Y004161D01*
X031203Y004320D02*
X003897Y004320D01*
X003765Y004478D02*
X031336Y004478D01*
X031530Y004637D02*
X003571Y004637D01*
X002376Y004637D02*
X000993Y004637D01*
X000993Y004478D02*
X002182Y004478D01*
X002050Y004320D02*
X000992Y004320D01*
X000992Y004161D02*
X001958Y004161D01*
X001906Y004003D02*
X000992Y004003D01*
X000991Y003844D02*
X001864Y003844D01*
X001864Y003686D02*
X000991Y003686D01*
X000990Y003527D02*
X001871Y003527D01*
X001913Y003369D02*
X000990Y003369D01*
X000989Y003210D02*
X001975Y003210D01*
X002066Y003052D02*
X000989Y003052D01*
X000989Y002893D02*
X002211Y002893D01*
X002426Y002735D02*
X000988Y002735D01*
X000988Y002576D02*
X035497Y002576D01*
X035497Y002418D02*
X000987Y002418D01*
X000987Y002259D02*
X035497Y002259D01*
X035497Y002101D02*
X002532Y002101D01*
X024848Y019219D02*
X028502Y019219D01*
X028344Y019377D02*
X024824Y019377D01*
X024824Y019243D02*
X024824Y022905D01*
X024983Y022839D01*
X025318Y022839D01*
X025589Y022951D01*
X025673Y022868D01*
X025983Y022739D01*
X026318Y022739D01*
X026629Y022868D01*
X026712Y022951D01*
X026983Y022839D01*
X027318Y022839D01*
X027629Y022968D01*
X027811Y023150D01*
X027862Y023112D01*
X027940Y023073D01*
X028022Y023046D01*
X028107Y023033D01*
X028131Y023033D01*
X028131Y023563D01*
X028171Y023563D01*
X028171Y023033D01*
X028194Y023033D01*
X028279Y023046D01*
X028362Y023073D01*
X028439Y023112D01*
X028490Y023150D01*
X028673Y022968D01*
X028983Y022839D01*
X029147Y022839D01*
X028152Y021603D01*
X028083Y021534D01*
X028069Y021500D01*
X028046Y021470D01*
X028018Y021377D01*
X027981Y021287D01*
X027981Y021249D01*
X027970Y021213D01*
X027981Y021116D01*
X027981Y019885D01*
X028083Y019637D01*
X028273Y019448D01*
X028935Y018786D01*
X028935Y018531D01*
X029289Y018177D01*
X029228Y018117D01*
X029228Y017913D01*
X029760Y017913D01*
X029760Y017857D01*
X029228Y017857D01*
X029228Y017653D01*
X029289Y017593D01*
X028935Y017238D01*
X028935Y016531D01*
X028994Y016472D01*
X027595Y016472D01*
X024824Y019243D01*
X025007Y019060D02*
X028661Y019060D01*
X028819Y018902D02*
X025165Y018902D01*
X025324Y018743D02*
X028935Y018743D01*
X028935Y018585D02*
X025482Y018585D01*
X025641Y018426D02*
X029040Y018426D01*
X029198Y018268D02*
X025799Y018268D01*
X025958Y018109D02*
X029228Y018109D01*
X029228Y017951D02*
X026116Y017951D01*
X026275Y017792D02*
X029228Y017792D01*
X029248Y017634D02*
X026433Y017634D01*
X026592Y017475D02*
X029171Y017475D01*
X029013Y017317D02*
X026750Y017317D01*
X026909Y017158D02*
X028935Y017158D01*
X028935Y017000D02*
X027067Y017000D01*
X027226Y016841D02*
X028935Y016841D01*
X028935Y016683D02*
X027384Y016683D01*
X027543Y016524D02*
X028942Y016524D01*
X030760Y014781D02*
X030817Y014781D01*
X030817Y014622D02*
X030760Y014622D01*
X030760Y014464D02*
X030817Y014464D01*
X031159Y014464D02*
X033787Y014464D01*
X033787Y014622D02*
X031318Y014622D01*
X031348Y014781D02*
X034887Y014781D01*
X034887Y014939D02*
X035047Y014939D01*
X035047Y015098D02*
X034887Y015098D01*
X034887Y015256D02*
X035047Y015256D01*
X035497Y015415D02*
X033423Y015415D01*
X033595Y015573D02*
X035497Y015573D01*
X035497Y015732D02*
X033699Y015732D01*
X033807Y015890D02*
X035497Y015890D01*
X035497Y016049D02*
X033914Y016049D01*
X034022Y016207D02*
X035497Y016207D01*
X035497Y016366D02*
X034129Y016366D01*
X034237Y016524D02*
X035497Y016524D01*
X035497Y016683D02*
X034344Y016683D01*
X034452Y016841D02*
X035497Y016841D01*
X035497Y017000D02*
X034559Y017000D01*
X034667Y017158D02*
X035497Y017158D01*
X035497Y017317D02*
X034774Y017317D01*
X034882Y017475D02*
X035497Y017475D01*
X035497Y017634D02*
X034989Y017634D01*
X035097Y017792D02*
X035497Y017792D01*
X035497Y017951D02*
X035204Y017951D01*
X035312Y018109D02*
X035497Y018109D01*
X035497Y018268D02*
X035419Y018268D01*
X033611Y019638D02*
X033505Y019638D01*
X033421Y019673D01*
X031208Y019673D01*
X031142Y019739D01*
X030982Y019739D01*
X030903Y019817D01*
X030903Y021168D01*
X030901Y021173D01*
X030901Y021327D01*
X030829Y021501D01*
X030696Y021634D01*
X030522Y021706D01*
X030368Y021706D01*
X030363Y021708D01*
X030095Y021708D01*
X030091Y021706D01*
X029965Y021706D01*
X030600Y022496D01*
X030657Y022546D01*
X030683Y022600D01*
X030720Y022646D01*
X030742Y022719D01*
X030775Y022787D01*
X030779Y022846D01*
X030796Y022903D01*
X030787Y022979D01*
X030791Y023030D01*
X030866Y023105D01*
X030994Y023415D01*
X030994Y023751D01*
X030866Y024061D01*
X030629Y024298D01*
X030318Y024427D01*
X029983Y024427D01*
X029712Y024314D01*
X029629Y024398D01*
X029318Y024527D01*
X028983Y024527D01*
X028673Y024398D01*
X028435Y024161D01*
X028399Y024073D01*
X028362Y024093D01*
X028279Y024119D01*
X028194Y024133D01*
X028171Y024133D01*
X028171Y023603D01*
X028131Y023603D01*
X028131Y024133D01*
X028107Y024133D01*
X028022Y024119D01*
X027940Y024093D01*
X027902Y024073D01*
X027866Y024161D01*
X027726Y024301D01*
X027964Y024301D01*
X028274Y024429D01*
X028396Y024551D01*
X029922Y024551D01*
X030141Y024641D01*
X030174Y024675D01*
X030346Y024675D01*
X030656Y024803D01*
X030678Y024826D01*
X030700Y024803D01*
X031010Y024675D01*
X031346Y024675D01*
X031656Y024803D01*
X031698Y024845D01*
X031932Y024845D01*
X031834Y024676D01*
X031762Y024405D01*
X031762Y022939D01*
X031834Y022668D01*
X031964Y022443D01*
X031699Y022372D01*
X031446Y022226D01*
X031239Y022019D01*
X031093Y021766D01*
X031017Y021484D01*
X031017Y021191D01*
X031093Y020909D01*
X031239Y020656D01*
X031446Y020449D01*
X031699Y020303D01*
X031981Y020228D01*
X032273Y020228D01*
X032555Y020303D01*
X032809Y020449D01*
X033015Y020656D01*
X033161Y020909D01*
X033237Y021191D01*
X033237Y021484D01*
X033161Y021766D01*
X033015Y022019D01*
X033010Y022025D01*
X033239Y022086D01*
X033482Y022227D01*
X033556Y022300D01*
X033611Y022246D01*
X033611Y019638D01*
X033611Y019694D02*
X031187Y019694D01*
X030903Y019853D02*
X033611Y019853D01*
X033611Y020011D02*
X030903Y020011D01*
X030903Y020170D02*
X033611Y020170D01*
X033611Y020328D02*
X032598Y020328D01*
X032846Y020487D02*
X033611Y020487D01*
X033611Y020645D02*
X033004Y020645D01*
X033100Y020804D02*
X033611Y020804D01*
X033611Y020962D02*
X033175Y020962D01*
X033218Y021121D02*
X033611Y021121D01*
X033611Y021279D02*
X033237Y021279D01*
X033237Y021438D02*
X033611Y021438D01*
X033611Y021596D02*
X033207Y021596D01*
X033164Y021755D02*
X033611Y021755D01*
X033611Y021913D02*
X033076Y021913D01*
X033185Y022072D02*
X033611Y022072D01*
X033611Y022230D02*
X033486Y022230D01*
X031904Y022547D02*
X030657Y022547D01*
X030738Y022706D02*
X031824Y022706D01*
X031782Y022864D02*
X030784Y022864D01*
X030790Y023023D02*
X031762Y023023D01*
X031762Y023181D02*
X030897Y023181D01*
X030963Y023340D02*
X031762Y023340D01*
X031762Y023498D02*
X030994Y023498D01*
X030994Y023657D02*
X031762Y023657D01*
X031762Y023815D02*
X030968Y023815D01*
X030902Y023974D02*
X031762Y023974D01*
X031762Y024132D02*
X030795Y024132D01*
X030636Y024291D02*
X031762Y024291D01*
X031773Y024449D02*
X029506Y024449D01*
X030059Y024608D02*
X031816Y024608D01*
X031886Y024766D02*
X031566Y024766D01*
X030791Y024766D02*
X030566Y024766D01*
X028796Y024449D02*
X028294Y024449D01*
X028565Y024291D02*
X027736Y024291D01*
X027878Y024132D02*
X028102Y024132D01*
X028131Y024132D02*
X028171Y024132D01*
X028199Y024132D02*
X028424Y024132D01*
X028171Y023974D02*
X028131Y023974D01*
X028131Y023815D02*
X028171Y023815D01*
X028171Y023657D02*
X028131Y023657D01*
X028131Y023498D02*
X028171Y023498D01*
X028171Y023340D02*
X028131Y023340D01*
X028131Y023181D02*
X028171Y023181D01*
X028618Y023023D02*
X027684Y023023D01*
X027379Y022864D02*
X028923Y022864D01*
X029039Y022706D02*
X024824Y022706D01*
X024824Y022864D02*
X024923Y022864D01*
X024824Y022547D02*
X028912Y022547D01*
X028784Y022389D02*
X024824Y022389D01*
X024824Y022230D02*
X028657Y022230D01*
X028529Y022072D02*
X024824Y022072D01*
X024824Y021913D02*
X028402Y021913D01*
X028274Y021755D02*
X024824Y021755D01*
X024824Y021596D02*
X028145Y021596D01*
X028036Y021438D02*
X024824Y021438D01*
X024824Y021279D02*
X027981Y021279D01*
X027980Y021121D02*
X024824Y021121D01*
X024824Y020962D02*
X027981Y020962D01*
X027981Y020804D02*
X024824Y020804D01*
X024824Y020645D02*
X027981Y020645D01*
X027981Y020487D02*
X024824Y020487D01*
X024824Y020328D02*
X027981Y020328D01*
X027981Y020170D02*
X024824Y020170D01*
X024824Y020011D02*
X027981Y020011D01*
X027994Y019853D02*
X024824Y019853D01*
X024824Y019694D02*
X028060Y019694D01*
X028185Y019536D02*
X024824Y019536D01*
X025379Y022864D02*
X025681Y022864D01*
X026620Y022864D02*
X026923Y022864D01*
X030003Y021755D02*
X031090Y021755D01*
X031047Y021596D02*
X030734Y021596D01*
X030855Y021438D02*
X031017Y021438D01*
X031017Y021279D02*
X030901Y021279D01*
X030903Y021121D02*
X031036Y021121D01*
X031079Y020962D02*
X030903Y020962D01*
X030903Y020804D02*
X031154Y020804D01*
X031250Y020645D02*
X030903Y020645D01*
X030903Y020487D02*
X031408Y020487D01*
X031656Y020328D02*
X030903Y020328D01*
X031178Y021913D02*
X030131Y021913D01*
X030258Y022072D02*
X031291Y022072D01*
X031453Y022230D02*
X030386Y022230D01*
X030513Y022389D02*
X031761Y022389D01*
X031367Y015256D02*
X033819Y015256D01*
X033787Y015098D02*
X031348Y015098D01*
X031348Y014939D02*
X033787Y014939D01*
X033787Y014305D02*
X030416Y014305D01*
X030257Y014147D02*
X033821Y014147D01*
X034887Y014147D02*
X035047Y014147D01*
X035047Y014305D02*
X034887Y014305D01*
X034887Y014464D02*
X035047Y014464D01*
X035047Y014622D02*
X034887Y014622D01*
X034887Y011769D02*
X035047Y011769D01*
X035047Y011611D02*
X034887Y011611D01*
X034887Y011452D02*
X035047Y011452D01*
X020907Y027144D02*
X020867Y027144D01*
X020867Y027302D02*
X020907Y027302D01*
X020907Y027461D02*
X020867Y027461D01*
X020628Y027461D02*
X016200Y027461D01*
X016364Y027619D02*
X021478Y027619D01*
X021279Y027461D02*
X021146Y027461D01*
X020444Y027302D02*
X016036Y027302D01*
X015871Y027144D02*
X020363Y027144D01*
X021145Y028095D02*
X016857Y028095D01*
X016693Y027936D02*
X022187Y027936D01*
X022183Y027778D02*
X016528Y027778D01*
X021865Y028095D02*
X022191Y028095D01*
D21*
X028143Y022688D03*
X033261Y018869D03*
X035269Y016349D03*
X028497Y017964D03*
D22*
X030788Y018885D02*
X030804Y018869D01*
X033261Y018869D01*
X032592Y028594D02*
X032552Y028633D01*
X020505Y028958D02*
X016594Y028958D01*
X016584Y028948D01*
X013214Y025696D01*
X013229Y028436D01*
X012411Y028436D01*
X010411Y028436D02*
X007820Y028436D01*
X006796Y027570D01*
X005694Y026468D01*
X005694Y025515D01*
X005859Y025680D02*
X007206Y025680D01*
X008485Y023712D02*
X009796Y023712D01*
X011206Y025121D01*
X011206Y025680D01*
X013316Y025680D01*
X002796Y025782D02*
X002796Y027570D01*
X002796Y025782D02*
X002517Y025503D01*
D23*
X022119Y025326D02*
X022119Y023717D01*
X022946Y023888D02*
X022946Y025365D01*
X023773Y026192D01*
X024403Y026192D01*
X024926Y026716D01*
X023866Y026875D02*
X022119Y025326D01*
X022946Y023888D02*
X023151Y023683D01*
X027796Y025145D02*
X029804Y025145D01*
X030178Y025519D01*
X031096Y025601D02*
X031178Y025519D01*
X031096Y026192D02*
X030977Y026310D01*
X029324Y026310D02*
X029285Y026271D01*
X034285Y023672D02*
X034363Y023672D01*
X030788Y016885D02*
X030812Y016861D01*
D24*
X014178Y023483D02*
X014178Y024007D01*
X013214Y024696D01*
D25*
X022505Y028958D02*
X022926Y028537D01*
X022887Y026975D01*
D26*
X030229Y021034D03*
D27*
X030741Y019027D02*
X030741Y018885D01*
X030788Y018885D01*
M02*
