G75*
%MOIN*%
%OFA0B0*%
%FSLAX24Y24*%
%IPPOS*%
%LPD*%
%AMOC8*
5,1,8,0,0,1.08239X$1,22.5*
%
%ADD10OC8,0.0760*%
%ADD11R,0.0650X0.0650*%
%ADD12C,0.0650*%
%ADD13C,0.0740*%
%ADD14C,0.0705*%
%ADD15C,0.1185*%
%ADD16R,0.2000X0.0900*%
%ADD17C,0.0660*%
%ADD18R,0.0740X0.0740*%
%ADD19R,0.0591X0.0591*%
%ADD20C,0.0400*%
%ADD21C,0.0660*%
%ADD22R,0.0396X0.0396*%
D10*
X029788Y014885D03*
X030788Y014885D03*
X030788Y015885D03*
X029788Y015885D03*
X029788Y016885D03*
X029788Y017885D03*
X029788Y018885D03*
X030788Y018885D03*
X030788Y017885D03*
X030788Y016885D03*
D11*
X008485Y023712D03*
X005694Y025515D03*
D12*
X005694Y024515D03*
X007485Y023712D03*
D13*
X013214Y024696D03*
X013214Y025696D03*
X014178Y023483D03*
X018178Y023483D03*
X021151Y023683D03*
X022151Y023583D03*
X023151Y023683D03*
X024151Y023583D03*
X025151Y023683D03*
X026151Y023583D03*
X027151Y023683D03*
X028151Y023583D03*
X029151Y023683D03*
X030151Y023583D03*
X030178Y025519D03*
X031178Y025519D03*
X027796Y025145D03*
X025887Y026875D03*
X024887Y026975D03*
X023887Y026875D03*
X022887Y026975D03*
X021887Y026875D03*
X020887Y026975D03*
X021505Y028858D03*
X020505Y028958D03*
X022505Y028958D03*
X023796Y025145D03*
X012411Y028436D03*
X011411Y028436D03*
D14*
X002869Y025503D02*
X002164Y025503D01*
X002164Y023534D02*
X002869Y023534D01*
D15*
X019442Y024025D02*
X019442Y025210D01*
X032828Y024265D02*
X032828Y023080D01*
X034285Y023080D02*
X034285Y024265D01*
D16*
X034967Y014704D03*
X034967Y012964D03*
X034967Y011224D03*
D17*
X011206Y025680D03*
X007206Y025680D03*
X006796Y027570D03*
X002796Y027570D03*
D18*
X010411Y028436D03*
D19*
X028143Y022688D03*
X033261Y018869D03*
X035269Y016349D03*
X028497Y017964D03*
D20*
X028615Y017263D02*
X028615Y013554D01*
X030466Y013554D01*
X030788Y013877D01*
X030788Y014885D01*
X029788Y017885D02*
X028615Y017263D01*
X030788Y017885D02*
X030828Y017845D01*
X031725Y017845D02*
X031725Y018790D01*
X033300Y019853D01*
X033143Y023200D01*
X032828Y023672D01*
X029166Y023667D02*
X029166Y022019D01*
X030151Y021034D01*
X030229Y021034D01*
X030466Y020208D02*
X031765Y019105D01*
X031725Y018790D01*
X031725Y017845D02*
X031883Y017845D01*
X030466Y020208D02*
X027907Y019971D01*
X027198Y020680D01*
X027198Y023636D01*
X027151Y023683D01*
X029151Y023683D02*
X029166Y023667D01*
X034967Y012964D02*
X035348Y012964D01*
D21*
X001237Y002353D02*
X001299Y024849D01*
X001303Y024842D01*
X001504Y024642D01*
X001749Y024500D01*
X002023Y024427D01*
X003011Y024427D01*
X003285Y024500D01*
X003530Y024642D01*
X003730Y024842D01*
X003872Y025088D01*
X003946Y025361D01*
X003946Y025645D01*
X003872Y025918D01*
X003730Y026164D01*
X003530Y026364D01*
X003285Y026506D01*
X003091Y026558D01*
X003203Y026588D01*
X003443Y026727D01*
X003640Y026923D01*
X003778Y027163D01*
X003850Y027431D01*
X003850Y027709D01*
X003778Y027977D01*
X003640Y028217D01*
X003443Y028413D01*
X003203Y028552D01*
X002935Y028624D01*
X002658Y028624D01*
X002390Y028552D01*
X002149Y028413D01*
X001953Y028217D01*
X001814Y027977D01*
X001743Y027709D01*
X001743Y027431D01*
X001814Y027163D01*
X001953Y026923D01*
X002149Y026727D01*
X002390Y026588D01*
X002423Y026579D01*
X002023Y026579D01*
X001749Y026506D01*
X001504Y026364D01*
X001303Y026164D01*
X001303Y026164D01*
X001312Y029278D01*
X009462Y029251D01*
X009427Y029216D01*
X009317Y028950D01*
X009317Y027922D01*
X009427Y027656D01*
X009631Y027453D01*
X009897Y027342D01*
X010924Y027342D01*
X011190Y027453D01*
X011374Y027636D01*
X011411Y027636D01*
X011463Y027636D01*
X011567Y027650D01*
X011633Y027667D01*
X011739Y027561D01*
X011988Y027417D01*
X012267Y027342D01*
X012555Y027342D01*
X012833Y027417D01*
X013082Y027561D01*
X013286Y027764D01*
X013430Y028014D01*
X013504Y028292D01*
X013504Y028580D01*
X013430Y028858D01*
X013286Y029108D01*
X013154Y029239D01*
X019442Y029218D01*
X019411Y029102D01*
X019411Y028814D01*
X019486Y028536D01*
X019630Y028287D01*
X019833Y028083D01*
X020083Y027939D01*
X020361Y027865D01*
X020559Y027865D01*
X020559Y027864D01*
X020576Y027800D01*
X020584Y027734D01*
X020591Y027719D01*
X020532Y027694D01*
X020441Y027642D01*
X020358Y027578D01*
X020284Y027504D01*
X020220Y027421D01*
X020168Y027330D01*
X020128Y027233D01*
X020101Y027132D01*
X020087Y027028D01*
X020087Y026975D01*
X020087Y026923D01*
X020101Y026819D01*
X020128Y026718D01*
X020168Y026621D01*
X020220Y026530D01*
X020284Y026447D01*
X020358Y026373D01*
X020441Y026309D01*
X020532Y026256D01*
X020629Y026216D01*
X020730Y026189D01*
X020834Y026175D01*
X020887Y026175D01*
X020939Y026175D01*
X021028Y026187D01*
X021215Y026000D01*
X021465Y025856D01*
X021743Y025782D01*
X022031Y025782D01*
X022309Y025856D01*
X022477Y025953D01*
X022743Y025882D01*
X022987Y025882D01*
X022921Y025816D01*
X022777Y025567D01*
X022703Y025289D01*
X022703Y025001D01*
X022777Y024723D01*
X022781Y024716D01*
X022729Y024702D01*
X022561Y024605D01*
X022295Y024677D01*
X022007Y024677D01*
X021729Y024602D01*
X021479Y024458D01*
X021447Y024426D01*
X021408Y024442D01*
X021307Y024469D01*
X021203Y024483D01*
X021151Y024483D01*
X021151Y024038D01*
X021151Y024483D01*
X021098Y024483D01*
X020994Y024469D01*
X020893Y024442D01*
X020796Y024402D01*
X020705Y024349D01*
X020622Y024286D01*
X020548Y024211D01*
X020484Y024128D01*
X020465Y024094D01*
X020465Y024617D01*
X019442Y024617D01*
X019442Y023002D01*
X019499Y023002D01*
X019614Y023015D01*
X019726Y023041D01*
X019834Y023078D01*
X019937Y023128D01*
X020035Y023189D01*
X020124Y023261D01*
X020206Y023342D01*
X020277Y023432D01*
X020338Y023529D01*
X020358Y023571D01*
X020364Y023526D01*
X020391Y023425D01*
X020432Y023328D01*
X020484Y023237D01*
X020548Y023154D01*
X020622Y023080D01*
X020705Y023016D01*
X020796Y022964D01*
X020893Y022924D01*
X020994Y022897D01*
X021098Y022883D01*
X021151Y022883D01*
X021203Y022883D01*
X021292Y022895D01*
X021479Y022708D01*
X021729Y022564D01*
X022007Y022489D01*
X022295Y022489D01*
X022573Y022564D01*
X022740Y022661D01*
X023007Y022589D01*
X023295Y022589D01*
X023561Y022661D01*
X023729Y022564D01*
X024007Y022489D01*
X024295Y022489D01*
X024573Y022564D01*
X024740Y022661D01*
X025007Y022589D01*
X025295Y022589D01*
X025561Y022661D01*
X025729Y022564D01*
X026007Y022489D01*
X026274Y022489D01*
X026274Y020496D01*
X026415Y020157D01*
X027154Y019417D01*
X027175Y019378D01*
X027284Y019288D01*
X027383Y019188D01*
X027424Y019172D01*
X027458Y019144D01*
X027592Y019102D01*
X027723Y019048D01*
X027767Y019048D01*
X027809Y019035D01*
X027949Y019048D01*
X028090Y019048D01*
X028131Y019065D01*
X028685Y019116D01*
X028685Y018428D01*
X028978Y018134D01*
X028978Y017885D01*
X029228Y017885D01*
X029228Y017885D01*
X029228Y017885D01*
X028978Y017885D01*
X028978Y017636D01*
X028685Y017342D01*
X028685Y016428D01*
X028728Y016385D01*
X028685Y016342D01*
X028685Y015428D01*
X028728Y015385D01*
X028685Y015342D01*
X028685Y014428D01*
X029331Y013781D01*
X030246Y013781D01*
X030539Y014075D01*
X030788Y014075D01*
X030788Y014324D01*
X030788Y014324D01*
X030788Y014075D01*
X031124Y014075D01*
X031459Y014410D01*
X031459Y013061D01*
X031531Y012793D01*
X031670Y012553D01*
X031906Y012317D01*
X032102Y012120D01*
X032342Y011982D01*
X032610Y011910D01*
X033548Y011910D01*
X033557Y011900D01*
X033593Y011885D01*
X033569Y011839D01*
X033548Y011774D01*
X033537Y011707D01*
X033537Y011224D01*
X034967Y011224D01*
X034967Y011224D01*
X033537Y011224D01*
X033537Y010740D01*
X033548Y010673D01*
X033569Y010609D01*
X033600Y010548D01*
X033639Y010493D01*
X033687Y010446D01*
X033742Y010406D01*
X033802Y010375D01*
X033867Y010354D01*
X033934Y010344D01*
X034967Y010344D01*
X034967Y011224D01*
X034967Y011224D01*
X034967Y010344D01*
X035247Y010344D01*
X035247Y002278D01*
X003187Y002349D01*
X003498Y002433D01*
X003809Y002612D01*
X004062Y002865D01*
X004241Y003175D01*
X004333Y003521D01*
X004333Y003879D01*
X004241Y004225D01*
X004062Y004535D01*
X003809Y004788D01*
X003498Y004967D01*
X003153Y005060D01*
X002794Y005060D01*
X002449Y004967D01*
X002138Y004788D01*
X001885Y004535D01*
X001706Y004225D01*
X001614Y003879D01*
X001614Y003521D01*
X001706Y003175D01*
X001885Y002865D01*
X002138Y002612D01*
X002449Y002433D01*
X002757Y002350D01*
X001237Y002353D01*
X001239Y002942D02*
X001841Y002942D01*
X001614Y003601D02*
X001240Y003601D01*
X001242Y004259D02*
X001726Y004259D01*
X001244Y004918D02*
X002363Y004918D01*
X001246Y005576D02*
X035247Y005576D01*
X035247Y004918D02*
X032738Y004918D01*
X032652Y004967D02*
X032962Y004788D01*
X033215Y004535D01*
X033394Y004225D01*
X033487Y003879D01*
X033487Y003521D01*
X033394Y003175D01*
X033215Y002865D01*
X032962Y002612D01*
X032652Y002433D01*
X032306Y002340D01*
X031948Y002340D01*
X031602Y002433D01*
X031292Y002612D01*
X031039Y002865D01*
X030860Y003175D01*
X030767Y003521D01*
X030767Y003879D01*
X030860Y004225D01*
X031039Y004535D01*
X031292Y004788D01*
X031602Y004967D01*
X031948Y005060D01*
X032306Y005060D01*
X032652Y004967D01*
X031516Y004918D02*
X003584Y004918D01*
X004221Y004259D02*
X030880Y004259D01*
X030767Y003601D02*
X004333Y003601D01*
X004106Y002942D02*
X030994Y002942D01*
X032716Y002284D02*
X035247Y002284D01*
X035247Y002942D02*
X033260Y002942D01*
X033487Y003601D02*
X035247Y003601D01*
X035247Y004259D02*
X033374Y004259D01*
X035247Y006235D02*
X001248Y006235D01*
X001250Y006893D02*
X035247Y006893D01*
X035247Y007552D02*
X001251Y007552D01*
X001253Y008210D02*
X035247Y008210D01*
X035247Y008869D02*
X001255Y008869D01*
X001257Y009527D02*
X035247Y009527D01*
X035247Y010186D02*
X001259Y010186D01*
X001261Y010844D02*
X033537Y010844D01*
X033537Y011503D02*
X001262Y011503D01*
X001264Y012161D02*
X032062Y012161D01*
X031524Y012820D02*
X001266Y012820D01*
X001268Y013478D02*
X031459Y013478D01*
X031459Y014137D02*
X031186Y014137D01*
X030788Y014137D02*
X030788Y014137D01*
X031349Y014885D02*
X031459Y014885D01*
X031459Y014885D01*
X031349Y014885D01*
X031349Y014885D01*
X032513Y013200D02*
X032749Y012964D01*
X034967Y012964D01*
X033593Y014042D02*
X033567Y014031D01*
X033567Y014096D01*
X033569Y014089D01*
X033593Y014042D01*
X032513Y013200D02*
X032513Y017216D01*
X031883Y017845D01*
X031725Y017845D02*
X030828Y017845D01*
X028978Y018088D02*
X001281Y018088D01*
X001282Y018746D02*
X028685Y018746D01*
X028772Y017429D02*
X001279Y017429D01*
X001277Y016771D02*
X028685Y016771D01*
X028685Y016112D02*
X001275Y016112D01*
X001273Y015454D02*
X028685Y015454D01*
X028685Y014795D02*
X001272Y014795D01*
X001270Y014137D02*
X028976Y014137D01*
X033567Y015311D02*
X033567Y017354D01*
X033495Y017622D01*
X033383Y017815D01*
X033754Y017815D01*
X034022Y017887D01*
X034262Y018026D01*
X035247Y019011D01*
X035247Y015584D01*
X034967Y015584D01*
X033934Y015584D01*
X033867Y015573D01*
X033802Y015552D01*
X033742Y015521D01*
X033687Y015482D01*
X033639Y015434D01*
X033600Y015379D01*
X033569Y015319D01*
X033567Y015311D01*
X033567Y015454D02*
X033659Y015454D01*
X033567Y016112D02*
X035247Y016112D01*
X034967Y015584D02*
X034967Y014704D01*
X034967Y015584D01*
X034967Y015454D02*
X034967Y015454D01*
X034967Y014795D02*
X034967Y014795D01*
X034967Y014704D02*
X034967Y014704D01*
X035247Y016771D02*
X033567Y016771D01*
X033547Y017429D02*
X035247Y017429D01*
X035247Y018088D02*
X034324Y018088D01*
X034982Y018746D02*
X035247Y018746D01*
X033615Y018869D02*
X033261Y018869D01*
X033615Y018869D02*
X035466Y020719D01*
X035466Y026153D01*
X033576Y028003D01*
X021612Y028003D01*
X021505Y028858D01*
X020038Y027965D02*
X013401Y027965D01*
X013493Y028624D02*
X019462Y028624D01*
X020158Y027307D02*
X007817Y027307D01*
X007850Y027431D02*
X007850Y027709D01*
X007778Y027977D01*
X007640Y028217D01*
X007443Y028413D01*
X007203Y028552D01*
X006935Y028624D01*
X006658Y028624D01*
X006390Y028552D01*
X006149Y028413D01*
X005953Y028217D01*
X005814Y027977D01*
X005743Y027709D01*
X005743Y027431D01*
X005814Y027163D01*
X005953Y026923D01*
X006149Y026727D01*
X006390Y026588D01*
X006582Y026537D01*
X006559Y026523D01*
X006459Y026423D01*
X006429Y026453D01*
X006163Y026563D01*
X005225Y026563D01*
X004959Y026453D01*
X004755Y026250D01*
X004645Y025984D01*
X004645Y025046D01*
X004755Y024780D01*
X004943Y024593D01*
X004939Y024564D01*
X004939Y024515D01*
X005107Y024515D01*
X005107Y024515D01*
X004939Y024515D01*
X004939Y024465D01*
X004952Y024367D01*
X004978Y024272D01*
X005015Y024180D01*
X005065Y024094D01*
X005125Y024016D01*
X005195Y023946D01*
X005274Y023886D01*
X005359Y023836D01*
X005451Y023798D01*
X005546Y023773D01*
X005644Y023760D01*
X005694Y023760D01*
X005743Y023760D01*
X005842Y023773D01*
X005937Y023798D01*
X006029Y023836D01*
X006114Y023886D01*
X006193Y023946D01*
X006263Y024016D01*
X006323Y024094D01*
X006373Y024180D01*
X006410Y024272D01*
X006436Y024367D01*
X006449Y024465D01*
X006449Y024515D01*
X006449Y024564D01*
X006445Y024593D01*
X006632Y024780D01*
X006637Y024792D01*
X006799Y024698D01*
X007067Y024626D01*
X007345Y024626D01*
X007613Y024698D01*
X007853Y024837D01*
X008049Y025033D01*
X008188Y025273D01*
X008259Y025541D01*
X008259Y025819D01*
X008188Y026087D01*
X008049Y026327D01*
X007853Y026523D01*
X007613Y026662D01*
X007420Y026713D01*
X007443Y026727D01*
X007640Y026923D01*
X007778Y027163D01*
X007850Y027431D01*
X007781Y027965D02*
X009317Y027965D01*
X009317Y028624D02*
X006935Y028624D01*
X006657Y028624D02*
X002935Y028624D01*
X002657Y028624D02*
X001310Y028624D01*
X001308Y027965D02*
X001811Y027965D01*
X001776Y027307D02*
X001306Y027307D01*
X001304Y026648D02*
X002286Y026648D01*
X003307Y026648D02*
X006286Y026648D01*
X005776Y027307D02*
X003817Y027307D01*
X003781Y027965D02*
X005811Y027965D01*
X007637Y026648D02*
X010775Y026648D01*
X010799Y026662D02*
X010559Y026523D01*
X010363Y026327D01*
X010224Y026087D01*
X010152Y025819D01*
X010152Y025541D01*
X010224Y025273D01*
X010363Y025033D01*
X010559Y024837D01*
X010799Y024698D01*
X011067Y024626D01*
X011345Y024626D01*
X011613Y024698D01*
X011853Y024837D01*
X012049Y025033D01*
X012188Y025273D01*
X012191Y025286D01*
X012194Y025274D01*
X012239Y025196D01*
X012194Y025118D01*
X012120Y024840D01*
X012120Y024552D01*
X012194Y024274D01*
X012338Y024024D01*
X012542Y023821D01*
X012792Y023677D01*
X013070Y023602D01*
X013085Y023602D01*
X013085Y023339D01*
X013159Y023061D01*
X013303Y022812D01*
X013507Y022608D01*
X013756Y022464D01*
X014034Y022390D01*
X014322Y022390D01*
X014600Y022464D01*
X014850Y022608D01*
X015053Y022812D01*
X015197Y023061D01*
X015272Y023339D01*
X015272Y023627D01*
X015197Y023905D01*
X015053Y024155D01*
X014850Y024358D01*
X014600Y024502D01*
X014322Y024577D01*
X014307Y024577D01*
X014307Y024840D01*
X014233Y025118D01*
X014188Y025196D01*
X014233Y025274D01*
X014307Y025552D01*
X014307Y025840D01*
X014233Y026118D01*
X014089Y026367D01*
X013885Y026571D01*
X013636Y026715D01*
X013358Y026790D01*
X013070Y026790D01*
X012792Y026715D01*
X012542Y026571D01*
X012338Y026367D01*
X012194Y026118D01*
X012187Y026089D01*
X012049Y026327D01*
X011853Y026523D01*
X011613Y026662D01*
X011345Y026734D01*
X011067Y026734D01*
X010799Y026662D01*
X011637Y026648D02*
X012675Y026648D01*
X013752Y026648D02*
X020157Y026648D01*
X020087Y026975D02*
X020793Y026975D01*
X020793Y026975D01*
X020087Y026975D01*
X020887Y026420D02*
X020887Y026420D01*
X020887Y026175D01*
X020887Y026420D01*
X021234Y025990D02*
X020104Y025990D01*
X020124Y025973D02*
X020035Y026045D01*
X019937Y026106D01*
X019834Y026156D01*
X019726Y026194D01*
X019614Y026219D01*
X019499Y026232D01*
X019442Y026232D01*
X019385Y026232D01*
X019270Y026219D01*
X019158Y026194D01*
X019050Y026156D01*
X018947Y026106D01*
X018849Y026045D01*
X018760Y025973D01*
X018678Y025892D01*
X018607Y025802D01*
X018546Y025705D01*
X018496Y025602D01*
X018458Y025493D01*
X018432Y025381D01*
X018420Y025267D01*
X018420Y024617D01*
X018420Y024247D01*
X018335Y024270D01*
X018231Y024283D01*
X018178Y024283D01*
X018126Y024283D01*
X018022Y024270D01*
X017921Y024242D01*
X017824Y024202D01*
X017733Y024150D01*
X017650Y024086D01*
X017575Y024012D01*
X017512Y023929D01*
X017459Y023838D01*
X017419Y023741D01*
X017392Y023640D01*
X017378Y023536D01*
X017378Y023483D01*
X017378Y023431D01*
X017392Y023327D01*
X017419Y023226D01*
X017459Y023129D01*
X017512Y023038D01*
X017575Y022955D01*
X017650Y022881D01*
X017733Y022817D01*
X017824Y022764D01*
X017921Y022724D01*
X018022Y022697D01*
X018126Y022683D01*
X018178Y022683D01*
X018178Y023483D01*
X018178Y023483D01*
X017378Y023483D01*
X018178Y023483D01*
X018178Y023483D01*
X018178Y022683D01*
X018231Y022683D01*
X018335Y022697D01*
X021498Y022697D01*
X021151Y022883D02*
X021151Y023128D01*
X021151Y023128D01*
X021151Y022883D01*
X020420Y023356D02*
X020216Y023356D01*
X019442Y023356D02*
X019442Y023356D01*
X019442Y023002D02*
X019442Y024617D01*
X019442Y024617D01*
X018420Y024617D01*
X019442Y024617D01*
X019442Y024617D01*
X019442Y024617D01*
X020465Y024617D01*
X020465Y025267D01*
X020452Y025381D01*
X020426Y025493D01*
X020388Y025602D01*
X020338Y025705D01*
X020277Y025802D01*
X020206Y025892D01*
X020124Y025973D01*
X019442Y025990D02*
X019442Y025990D01*
X019442Y026232D02*
X019442Y024617D01*
X019442Y024617D01*
X019442Y026232D01*
X018780Y025990D02*
X014267Y025990D01*
X014248Y025331D02*
X018427Y025331D01*
X019442Y025331D02*
X019442Y025331D01*
X019442Y024673D02*
X019442Y024673D01*
X019442Y024014D02*
X019442Y024014D01*
X018420Y024673D02*
X014307Y024673D01*
X015135Y024014D02*
X017578Y024014D01*
X018178Y024014D02*
X018178Y024014D01*
X018178Y024283D02*
X018178Y023483D01*
X018178Y023483D01*
X018178Y024283D01*
X018178Y023356D02*
X018178Y023356D01*
X018178Y022697D02*
X018178Y022697D01*
X018022Y022697D02*
X014939Y022697D01*
X015272Y023356D02*
X017388Y023356D01*
X018335Y022697D02*
X018436Y022724D01*
X018533Y022764D01*
X018624Y022817D01*
X018707Y022881D01*
X018781Y022955D01*
X018845Y023038D01*
X018897Y023129D01*
X018907Y023153D01*
X018947Y023128D01*
X019050Y023078D01*
X019158Y023041D01*
X019270Y023015D01*
X019385Y023002D01*
X019442Y023002D01*
X020465Y024673D02*
X021992Y024673D01*
X022310Y024673D02*
X022677Y024673D01*
X022714Y025331D02*
X020457Y025331D01*
X021151Y024038D02*
X021151Y024038D01*
X024556Y025932D02*
X024743Y025882D01*
X025031Y025882D01*
X025297Y025953D01*
X025465Y025856D01*
X025743Y025782D01*
X026031Y025782D01*
X026309Y025856D01*
X026558Y026000D01*
X026762Y026204D01*
X026906Y026453D01*
X026981Y026731D01*
X026981Y026949D01*
X033146Y026949D01*
X034412Y025710D01*
X034412Y025581D01*
X034111Y025581D01*
X033776Y025491D01*
X033556Y025364D01*
X033336Y025491D01*
X033001Y025581D01*
X032655Y025581D01*
X032320Y025491D01*
X032272Y025464D01*
X032272Y025663D01*
X032197Y025941D01*
X032053Y026190D01*
X031850Y026394D01*
X031600Y026538D01*
X031322Y026612D01*
X031034Y026612D01*
X030756Y026538D01*
X030678Y026493D01*
X030600Y026538D01*
X030322Y026612D01*
X030034Y026612D01*
X029756Y026538D01*
X029507Y026394D01*
X029303Y026190D01*
X029159Y025941D01*
X029085Y025663D01*
X029085Y025375D01*
X029159Y025097D01*
X029303Y024847D01*
X029403Y024748D01*
X029295Y024777D01*
X029007Y024777D01*
X028816Y024726D01*
X028890Y025001D01*
X028890Y025289D01*
X028816Y025567D01*
X028672Y025816D01*
X028468Y026020D01*
X028218Y026164D01*
X027940Y026238D01*
X027652Y026238D01*
X027374Y026164D01*
X027125Y026020D01*
X026921Y025816D01*
X026777Y025567D01*
X026703Y025289D01*
X026703Y025001D01*
X026777Y024723D01*
X026781Y024716D01*
X026729Y024702D01*
X026561Y024605D01*
X026295Y024677D01*
X026007Y024677D01*
X025740Y024605D01*
X025573Y024702D01*
X025295Y024777D01*
X025007Y024777D01*
X024816Y024726D01*
X024890Y025001D01*
X024890Y025289D01*
X024816Y025567D01*
X024672Y025816D01*
X024556Y025932D01*
X024879Y025331D02*
X026714Y025331D01*
X026540Y025990D02*
X027094Y025990D01*
X026958Y026648D02*
X033454Y026648D01*
X034126Y025990D02*
X032169Y025990D01*
X031523Y024479D02*
X031322Y024425D01*
X031034Y024425D01*
X030756Y024500D01*
X030678Y024544D01*
X030675Y024543D01*
X030822Y024458D01*
X031026Y024254D01*
X031170Y024005D01*
X031244Y023727D01*
X031244Y023439D01*
X031170Y023161D01*
X031026Y022911D01*
X030822Y022708D01*
X030573Y022564D01*
X030295Y022489D01*
X030090Y022489D01*
X030090Y022401D01*
X030535Y021956D01*
X030571Y021956D01*
X030837Y021846D01*
X030852Y021832D01*
X030860Y021863D01*
X031039Y022173D01*
X031292Y022426D01*
X031594Y022600D01*
X031512Y022906D01*
X031512Y024438D01*
X031523Y024479D01*
X031512Y024014D02*
X031165Y024014D01*
X031222Y023356D02*
X031512Y023356D01*
X031568Y022697D02*
X030804Y022697D01*
X030961Y022039D02*
X030453Y022039D01*
X028889Y020990D02*
X028253Y020931D01*
X028122Y021063D01*
X028122Y022783D01*
X028151Y022783D01*
X028203Y022783D01*
X028243Y022788D01*
X028243Y021835D01*
X028383Y021495D01*
X028889Y020990D01*
X028499Y021380D02*
X028122Y021380D01*
X028122Y022039D02*
X028243Y022039D01*
X028243Y022697D02*
X028122Y022697D01*
X028151Y022783D02*
X028151Y023228D01*
X028151Y023228D01*
X028151Y023228D01*
X028151Y022783D01*
X026274Y022039D02*
X004139Y022039D01*
X004062Y022173D02*
X003809Y022426D01*
X003498Y022605D01*
X003153Y022698D01*
X002794Y022698D01*
X002449Y022605D01*
X002138Y022426D01*
X001885Y022173D01*
X001706Y021863D01*
X001614Y021517D01*
X001614Y021159D01*
X001706Y020813D01*
X001885Y020503D01*
X002138Y020249D01*
X002449Y020070D01*
X002794Y019978D01*
X003153Y019978D01*
X003498Y020070D01*
X003809Y020249D01*
X004062Y020503D01*
X004241Y020813D01*
X004333Y021159D01*
X004333Y021517D01*
X004241Y021863D01*
X004062Y022173D01*
X004333Y021380D02*
X026274Y021380D01*
X026274Y020722D02*
X004188Y020722D01*
X003471Y020063D02*
X026509Y020063D01*
X027161Y019405D02*
X001284Y019405D01*
X001286Y020063D02*
X002476Y020063D01*
X001759Y020722D02*
X001288Y020722D01*
X001290Y021380D02*
X001614Y021380D01*
X001808Y022039D02*
X001292Y022039D01*
X001293Y022697D02*
X002793Y022697D01*
X002921Y022752D02*
X003022Y022765D01*
X003121Y022792D01*
X003216Y022831D01*
X003305Y022882D01*
X003386Y022945D01*
X003459Y023017D01*
X003521Y023099D01*
X003573Y023188D01*
X003612Y023282D01*
X003638Y023381D01*
X003652Y023483D01*
X003652Y023534D01*
X002517Y023534D01*
X002517Y022752D01*
X002921Y022752D01*
X003154Y022697D02*
X007934Y022697D01*
X008016Y022663D02*
X007750Y022773D01*
X007563Y022960D01*
X007535Y022957D01*
X007485Y022957D01*
X007485Y023125D01*
X007485Y023125D01*
X007485Y022957D01*
X007436Y022957D01*
X007338Y022970D01*
X007242Y022995D01*
X007151Y023033D01*
X007065Y023083D01*
X006986Y023143D01*
X006916Y023213D01*
X006856Y023291D01*
X006807Y023377D01*
X006769Y023468D01*
X006743Y023564D01*
X006730Y023662D01*
X006730Y023712D01*
X007437Y023712D01*
X007437Y023712D01*
X006730Y023712D01*
X006730Y023761D01*
X006743Y023859D01*
X006769Y023955D01*
X006807Y024046D01*
X006856Y024132D01*
X006916Y024210D01*
X006986Y024280D01*
X007065Y024341D01*
X007151Y024390D01*
X007242Y024428D01*
X007338Y024454D01*
X007436Y024467D01*
X007485Y024467D01*
X007485Y024298D01*
X007485Y024298D01*
X007485Y024467D01*
X007535Y024467D01*
X007563Y024463D01*
X007750Y024650D01*
X008016Y024760D01*
X008954Y024760D01*
X009220Y024650D01*
X009424Y024447D01*
X009534Y024181D01*
X009534Y023243D01*
X009424Y022977D01*
X009220Y022773D01*
X008954Y022663D01*
X008016Y022663D01*
X009037Y022697D02*
X013418Y022697D01*
X013085Y023356D02*
X009534Y023356D01*
X009534Y024014D02*
X012349Y024014D01*
X012120Y024673D02*
X011517Y024673D01*
X010895Y024673D02*
X009166Y024673D01*
X008203Y025331D02*
X010208Y025331D01*
X010198Y025990D02*
X008214Y025990D01*
X007804Y024673D02*
X007517Y024673D01*
X006895Y024673D02*
X006525Y024673D01*
X006449Y024515D02*
X006281Y024515D01*
X006280Y024515D01*
X006449Y024515D01*
X006261Y024014D02*
X006793Y024014D01*
X006819Y023356D02*
X003631Y023356D01*
X003652Y023534D02*
X003652Y023586D01*
X003638Y023687D01*
X003612Y023787D01*
X003573Y023881D01*
X003521Y023970D01*
X003459Y024051D01*
X003386Y024124D01*
X003305Y024186D01*
X003216Y024238D01*
X003121Y024277D01*
X003022Y024304D01*
X002921Y024317D01*
X002517Y024317D01*
X002517Y023534D01*
X002517Y023534D01*
X002517Y023534D01*
X002517Y022752D01*
X002113Y022752D01*
X002011Y022765D01*
X001912Y022792D01*
X001817Y022831D01*
X001729Y022882D01*
X001647Y022945D01*
X001575Y023017D01*
X001512Y023099D01*
X001461Y023188D01*
X001422Y023282D01*
X001395Y023381D01*
X001382Y023483D01*
X001382Y023534D01*
X002517Y023534D01*
X002517Y023534D01*
X003652Y023534D01*
X003488Y024014D02*
X005127Y024014D01*
X005694Y024014D02*
X005694Y024014D01*
X005694Y023760D02*
X005694Y024466D01*
X005694Y024466D01*
X005694Y023760D01*
X004863Y024673D02*
X003561Y024673D01*
X002517Y024317D02*
X002113Y024317D01*
X002011Y024304D01*
X001912Y024277D01*
X001817Y024238D01*
X001729Y024186D01*
X001647Y024124D01*
X001575Y024051D01*
X001512Y023970D01*
X001461Y023881D01*
X001422Y023787D01*
X001395Y023687D01*
X001382Y023586D01*
X001382Y023534D01*
X002517Y023534D01*
X002517Y023534D01*
X002517Y024317D01*
X002517Y024014D02*
X002517Y024014D01*
X002517Y023356D02*
X002517Y023356D01*
X001402Y023356D02*
X001295Y023356D01*
X001297Y024014D02*
X001546Y024014D01*
X001473Y024673D02*
X001299Y024673D01*
X003937Y025331D02*
X004645Y025331D01*
X004648Y025990D02*
X003831Y025990D01*
X011411Y027636D02*
X011411Y027696D01*
X011411Y027636D01*
X011411Y027696D02*
X011411Y027696D01*
X011411Y029176D02*
X011411Y029176D01*
X011411Y029236D01*
X011463Y029236D01*
X011567Y029222D01*
X011633Y029205D01*
X011672Y029244D01*
X011365Y029245D01*
X011374Y029236D01*
X011411Y029236D01*
X011411Y029176D01*
X023571Y029204D02*
X035247Y029165D01*
X035247Y027841D01*
X034317Y028752D01*
X034223Y028846D01*
X034218Y028849D01*
X034214Y028853D01*
X034098Y028918D01*
X033983Y028985D01*
X033977Y028986D01*
X033972Y028989D01*
X033843Y029022D01*
X033715Y029057D01*
X033709Y029057D01*
X033703Y029058D01*
X033570Y029057D01*
X023599Y029057D01*
X023599Y029102D01*
X023571Y029204D01*
X028498Y025990D02*
X029187Y025990D01*
X029096Y025331D02*
X028879Y025331D01*
X026677Y024673D02*
X026310Y024673D01*
X025992Y024673D02*
X025624Y024673D01*
X034135Y021764D02*
X034175Y020919D01*
X034412Y021156D01*
X034412Y021764D01*
X034135Y021764D01*
X034153Y021380D02*
X034412Y021380D01*
X035121Y027965D02*
X035247Y027965D01*
X035247Y028624D02*
X034448Y028624D01*
X034967Y010844D02*
X034967Y010844D01*
D22*
X030229Y021034D03*
M02*
