%
M48
M72
T01C0.0236
T02C0.0276
T03C0.0320
T04C0.0354
T05C0.0394
T06C0.0400
T07C0.0433
T08C0.0440
T09C0.0470
T10C0.0790
%
T01
X30229Y21034
T02
X8485Y23712
X7485Y23712
X5694Y24515
X5694Y25515
T03
X13214Y25696
X13214Y24696
X30178Y25519
X31178Y25519
T04
X27796Y25145
X23796Y25145
X18178Y23483
X14178Y23483
T05
X28497Y17964
X33261Y18869
X35269Y16349
X28143Y22688
X12411Y28436
X11411Y28436
X10411Y28436
T06
X20505Y28958
X21505Y28858
X22505Y28958
X22887Y26975
X23887Y26875
X24887Y26975
X25887Y26875
X21887Y26875
X20887Y26975
X21151Y23683
X22151Y23583
X23151Y23683
X24151Y23583
X25151Y23683
X26151Y23583
X27151Y23683
X28151Y23583
X29151Y23683
X30151Y23583
T07
X29788Y18885
X29788Y17885
X29788Y16885
X29788Y15885
X30788Y15885
X30788Y16885
X30788Y17885
X30788Y18885
X30788Y14885
X29788Y14885
T08
X11206Y25680
X7206Y25680
X6796Y27570
X2796Y27570
T09
X2517Y25503
X2517Y23534
T10
X19442Y24617
X32828Y23672
X34285Y23672
M30
