G75*
%MOIN*%
%OFA0B0*%
%FSLAX24Y24*%
%IPPOS*%
%LPD*%
%AMOC8*
5,1,8,0,0,1.08239X$1,22.5*
%
%ADD10C,0.0395*%
%ADD11C,0.1340*%
%ADD12OC8,0.0840*%
%ADD13R,0.0730X0.0730*%
%ADD14C,0.0730*%
%ADD15C,0.0820*%
%ADD16C,0.0785*%
%ADD17C,0.1265*%
%ADD18R,0.2080X0.0980*%
%ADD19C,0.0740*%
%ADD20R,0.0820X0.0820*%
%ADD21R,0.0671X0.0671*%
%ADD22R,0.0476X0.0476*%
D10*
X000505Y001625D03*
X035977Y001546D03*
X035977Y029893D03*
X000584Y030011D03*
D11*
X002974Y021338D03*
X002974Y003700D03*
X032127Y003700D03*
X032127Y021338D03*
D12*
X030788Y018885D03*
X029788Y018885D03*
X029788Y017885D03*
X029788Y016885D03*
X029788Y015885D03*
X030788Y015885D03*
X030788Y016885D03*
X030788Y017885D03*
X030788Y014885D03*
X029788Y014885D03*
D13*
X008485Y023712D03*
X005694Y025515D03*
D14*
X005694Y024515D03*
X007485Y023712D03*
D15*
X013214Y024696D03*
X013214Y025696D03*
X014178Y023483D03*
X018178Y023483D03*
X021151Y023683D03*
X022151Y023583D03*
X023151Y023683D03*
X024151Y023583D03*
X025151Y023683D03*
X026151Y023583D03*
X027151Y023683D03*
X028151Y023583D03*
X029151Y023683D03*
X030151Y023583D03*
X030178Y025519D03*
X031178Y025519D03*
X027796Y025145D03*
X025887Y026875D03*
X024887Y026975D03*
X023887Y026875D03*
X022887Y026975D03*
X021887Y026875D03*
X020887Y026975D03*
X021505Y028858D03*
X020505Y028958D03*
X022505Y028958D03*
X023796Y025145D03*
X012411Y028436D03*
X011411Y028436D03*
D16*
X002869Y025503D02*
X002164Y025503D01*
X002164Y023534D02*
X002869Y023534D01*
D17*
X019442Y024025D02*
X019442Y025210D01*
X032828Y024265D02*
X032828Y023080D01*
X034285Y023080D02*
X034285Y024265D01*
D18*
X034967Y014704D03*
X034967Y011224D03*
D19*
X011206Y025680D03*
X007206Y025680D03*
X006796Y027570D03*
X002796Y027570D03*
D20*
X010411Y028436D03*
D21*
X028143Y022688D03*
X033261Y018869D03*
X035269Y016349D03*
X028497Y017964D03*
D22*
X030229Y021034D03*
M02*
