G75*
%MOIN*%
%OFA0B0*%
%FSLAX24Y24*%
%IPPOS*%
%LPD*%
%AMOC8*
5,1,8,0,0,1.08239X$1,22.5*
%
%ADD10C,0.0000*%
D10*
X000348Y001625D02*
X000350Y001650D01*
X000356Y001674D01*
X000365Y001696D01*
X000378Y001717D01*
X000394Y001736D01*
X000413Y001752D01*
X000434Y001765D01*
X000456Y001774D01*
X000480Y001780D01*
X000505Y001782D01*
X000530Y001780D01*
X000554Y001774D01*
X000576Y001765D01*
X000597Y001752D01*
X000616Y001736D01*
X000632Y001717D01*
X000645Y001696D01*
X000654Y001674D01*
X000660Y001650D01*
X000662Y001625D01*
X000660Y001600D01*
X000654Y001576D01*
X000645Y001554D01*
X000632Y001533D01*
X000616Y001514D01*
X000597Y001498D01*
X000576Y001485D01*
X000554Y001476D01*
X000530Y001470D01*
X000505Y001468D01*
X000480Y001470D01*
X000456Y001476D01*
X000434Y001485D01*
X000413Y001498D01*
X000394Y001514D01*
X000378Y001533D01*
X000365Y001554D01*
X000356Y001576D01*
X000350Y001600D01*
X000348Y001625D01*
X000505Y001625D02*
X000584Y030011D01*
X000427Y030011D02*
X000429Y030036D01*
X000435Y030060D01*
X000444Y030082D01*
X000457Y030103D01*
X000473Y030122D01*
X000492Y030138D01*
X000513Y030151D01*
X000535Y030160D01*
X000559Y030166D01*
X000584Y030168D01*
X000609Y030166D01*
X000633Y030160D01*
X000655Y030151D01*
X000676Y030138D01*
X000695Y030122D01*
X000711Y030103D01*
X000724Y030082D01*
X000733Y030060D01*
X000739Y030036D01*
X000741Y030011D01*
X000739Y029986D01*
X000733Y029962D01*
X000724Y029940D01*
X000711Y029919D01*
X000695Y029900D01*
X000676Y029884D01*
X000655Y029871D01*
X000633Y029862D01*
X000609Y029856D01*
X000584Y029854D01*
X000559Y029856D01*
X000535Y029862D01*
X000513Y029871D01*
X000492Y029884D01*
X000473Y029900D01*
X000457Y029919D01*
X000444Y029940D01*
X000435Y029962D01*
X000429Y029986D01*
X000427Y030011D01*
X000584Y030011D02*
X035977Y029893D01*
X035820Y029893D02*
X035822Y029918D01*
X035828Y029942D01*
X035837Y029964D01*
X035850Y029985D01*
X035866Y030004D01*
X035885Y030020D01*
X035906Y030033D01*
X035928Y030042D01*
X035952Y030048D01*
X035977Y030050D01*
X036002Y030048D01*
X036026Y030042D01*
X036048Y030033D01*
X036069Y030020D01*
X036088Y030004D01*
X036104Y029985D01*
X036117Y029964D01*
X036126Y029942D01*
X036132Y029918D01*
X036134Y029893D01*
X036132Y029868D01*
X036126Y029844D01*
X036117Y029822D01*
X036104Y029801D01*
X036088Y029782D01*
X036069Y029766D01*
X036048Y029753D01*
X036026Y029744D01*
X036002Y029738D01*
X035977Y029736D01*
X035952Y029738D01*
X035928Y029744D01*
X035906Y029753D01*
X035885Y029766D01*
X035866Y029782D01*
X035850Y029801D01*
X035837Y029822D01*
X035828Y029844D01*
X035822Y029868D01*
X035820Y029893D01*
X035977Y029893D02*
X035977Y001546D01*
X035820Y001546D02*
X035822Y001571D01*
X035828Y001595D01*
X035837Y001617D01*
X035850Y001638D01*
X035866Y001657D01*
X035885Y001673D01*
X035906Y001686D01*
X035928Y001695D01*
X035952Y001701D01*
X035977Y001703D01*
X036002Y001701D01*
X036026Y001695D01*
X036048Y001686D01*
X036069Y001673D01*
X036088Y001657D01*
X036104Y001638D01*
X036117Y001617D01*
X036126Y001595D01*
X036132Y001571D01*
X036134Y001546D01*
X036132Y001521D01*
X036126Y001497D01*
X036117Y001475D01*
X036104Y001454D01*
X036088Y001435D01*
X036069Y001419D01*
X036048Y001406D01*
X036026Y001397D01*
X036002Y001391D01*
X035977Y001389D01*
X035952Y001391D01*
X035928Y001397D01*
X035906Y001406D01*
X035885Y001419D01*
X035866Y001435D01*
X035850Y001454D01*
X035837Y001475D01*
X035828Y001497D01*
X035822Y001521D01*
X035820Y001546D01*
X035977Y001546D02*
X000505Y001625D01*
X002344Y003700D02*
X002346Y003750D01*
X002352Y003800D01*
X002362Y003849D01*
X002376Y003897D01*
X002393Y003944D01*
X002414Y003989D01*
X002439Y004033D01*
X002467Y004074D01*
X002499Y004113D01*
X002533Y004150D01*
X002570Y004184D01*
X002610Y004214D01*
X002652Y004241D01*
X002696Y004265D01*
X002742Y004286D01*
X002789Y004302D01*
X002837Y004315D01*
X002887Y004324D01*
X002936Y004329D01*
X002987Y004330D01*
X003037Y004327D01*
X003086Y004320D01*
X003135Y004309D01*
X003183Y004294D01*
X003229Y004276D01*
X003274Y004254D01*
X003317Y004228D01*
X003358Y004199D01*
X003397Y004167D01*
X003433Y004132D01*
X003465Y004094D01*
X003495Y004054D01*
X003522Y004011D01*
X003545Y003967D01*
X003564Y003921D01*
X003580Y003873D01*
X003592Y003824D01*
X003600Y003775D01*
X003604Y003725D01*
X003604Y003675D01*
X003600Y003625D01*
X003592Y003576D01*
X003580Y003527D01*
X003564Y003479D01*
X003545Y003433D01*
X003522Y003389D01*
X003495Y003346D01*
X003465Y003306D01*
X003433Y003268D01*
X003397Y003233D01*
X003358Y003201D01*
X003317Y003172D01*
X003274Y003146D01*
X003229Y003124D01*
X003183Y003106D01*
X003135Y003091D01*
X003086Y003080D01*
X003037Y003073D01*
X002987Y003070D01*
X002936Y003071D01*
X002887Y003076D01*
X002837Y003085D01*
X002789Y003098D01*
X002742Y003114D01*
X002696Y003135D01*
X002652Y003159D01*
X002610Y003186D01*
X002570Y003216D01*
X002533Y003250D01*
X002499Y003287D01*
X002467Y003326D01*
X002439Y003367D01*
X002414Y003411D01*
X002393Y003456D01*
X002376Y003503D01*
X002362Y003551D01*
X002352Y003600D01*
X002346Y003650D01*
X002344Y003700D01*
X002344Y021338D02*
X002346Y021388D01*
X002352Y021438D01*
X002362Y021487D01*
X002376Y021535D01*
X002393Y021582D01*
X002414Y021627D01*
X002439Y021671D01*
X002467Y021712D01*
X002499Y021751D01*
X002533Y021788D01*
X002570Y021822D01*
X002610Y021852D01*
X002652Y021879D01*
X002696Y021903D01*
X002742Y021924D01*
X002789Y021940D01*
X002837Y021953D01*
X002887Y021962D01*
X002936Y021967D01*
X002987Y021968D01*
X003037Y021965D01*
X003086Y021958D01*
X003135Y021947D01*
X003183Y021932D01*
X003229Y021914D01*
X003274Y021892D01*
X003317Y021866D01*
X003358Y021837D01*
X003397Y021805D01*
X003433Y021770D01*
X003465Y021732D01*
X003495Y021692D01*
X003522Y021649D01*
X003545Y021605D01*
X003564Y021559D01*
X003580Y021511D01*
X003592Y021462D01*
X003600Y021413D01*
X003604Y021363D01*
X003604Y021313D01*
X003600Y021263D01*
X003592Y021214D01*
X003580Y021165D01*
X003564Y021117D01*
X003545Y021071D01*
X003522Y021027D01*
X003495Y020984D01*
X003465Y020944D01*
X003433Y020906D01*
X003397Y020871D01*
X003358Y020839D01*
X003317Y020810D01*
X003274Y020784D01*
X003229Y020762D01*
X003183Y020744D01*
X003135Y020729D01*
X003086Y020718D01*
X003037Y020711D01*
X002987Y020708D01*
X002936Y020709D01*
X002887Y020714D01*
X002837Y020723D01*
X002789Y020736D01*
X002742Y020752D01*
X002696Y020773D01*
X002652Y020797D01*
X002610Y020824D01*
X002570Y020854D01*
X002533Y020888D01*
X002499Y020925D01*
X002467Y020964D01*
X002439Y021005D01*
X002414Y021049D01*
X002393Y021094D01*
X002376Y021141D01*
X002362Y021189D01*
X002352Y021238D01*
X002346Y021288D01*
X002344Y021338D01*
X031497Y021338D02*
X031499Y021388D01*
X031505Y021438D01*
X031515Y021487D01*
X031529Y021535D01*
X031546Y021582D01*
X031567Y021627D01*
X031592Y021671D01*
X031620Y021712D01*
X031652Y021751D01*
X031686Y021788D01*
X031723Y021822D01*
X031763Y021852D01*
X031805Y021879D01*
X031849Y021903D01*
X031895Y021924D01*
X031942Y021940D01*
X031990Y021953D01*
X032040Y021962D01*
X032089Y021967D01*
X032140Y021968D01*
X032190Y021965D01*
X032239Y021958D01*
X032288Y021947D01*
X032336Y021932D01*
X032382Y021914D01*
X032427Y021892D01*
X032470Y021866D01*
X032511Y021837D01*
X032550Y021805D01*
X032586Y021770D01*
X032618Y021732D01*
X032648Y021692D01*
X032675Y021649D01*
X032698Y021605D01*
X032717Y021559D01*
X032733Y021511D01*
X032745Y021462D01*
X032753Y021413D01*
X032757Y021363D01*
X032757Y021313D01*
X032753Y021263D01*
X032745Y021214D01*
X032733Y021165D01*
X032717Y021117D01*
X032698Y021071D01*
X032675Y021027D01*
X032648Y020984D01*
X032618Y020944D01*
X032586Y020906D01*
X032550Y020871D01*
X032511Y020839D01*
X032470Y020810D01*
X032427Y020784D01*
X032382Y020762D01*
X032336Y020744D01*
X032288Y020729D01*
X032239Y020718D01*
X032190Y020711D01*
X032140Y020708D01*
X032089Y020709D01*
X032040Y020714D01*
X031990Y020723D01*
X031942Y020736D01*
X031895Y020752D01*
X031849Y020773D01*
X031805Y020797D01*
X031763Y020824D01*
X031723Y020854D01*
X031686Y020888D01*
X031652Y020925D01*
X031620Y020964D01*
X031592Y021005D01*
X031567Y021049D01*
X031546Y021094D01*
X031529Y021141D01*
X031515Y021189D01*
X031505Y021238D01*
X031499Y021288D01*
X031497Y021338D01*
X035977Y015164D02*
X035977Y010764D01*
X031497Y003700D02*
X031499Y003750D01*
X031505Y003800D01*
X031515Y003849D01*
X031529Y003897D01*
X031546Y003944D01*
X031567Y003989D01*
X031592Y004033D01*
X031620Y004074D01*
X031652Y004113D01*
X031686Y004150D01*
X031723Y004184D01*
X031763Y004214D01*
X031805Y004241D01*
X031849Y004265D01*
X031895Y004286D01*
X031942Y004302D01*
X031990Y004315D01*
X032040Y004324D01*
X032089Y004329D01*
X032140Y004330D01*
X032190Y004327D01*
X032239Y004320D01*
X032288Y004309D01*
X032336Y004294D01*
X032382Y004276D01*
X032427Y004254D01*
X032470Y004228D01*
X032511Y004199D01*
X032550Y004167D01*
X032586Y004132D01*
X032618Y004094D01*
X032648Y004054D01*
X032675Y004011D01*
X032698Y003967D01*
X032717Y003921D01*
X032733Y003873D01*
X032745Y003824D01*
X032753Y003775D01*
X032757Y003725D01*
X032757Y003675D01*
X032753Y003625D01*
X032745Y003576D01*
X032733Y003527D01*
X032717Y003479D01*
X032698Y003433D01*
X032675Y003389D01*
X032648Y003346D01*
X032618Y003306D01*
X032586Y003268D01*
X032550Y003233D01*
X032511Y003201D01*
X032470Y003172D01*
X032427Y003146D01*
X032382Y003124D01*
X032336Y003106D01*
X032288Y003091D01*
X032239Y003080D01*
X032190Y003073D01*
X032140Y003070D01*
X032089Y003071D01*
X032040Y003076D01*
X031990Y003085D01*
X031942Y003098D01*
X031895Y003114D01*
X031849Y003135D01*
X031805Y003159D01*
X031763Y003186D01*
X031723Y003216D01*
X031686Y003250D01*
X031652Y003287D01*
X031620Y003326D01*
X031592Y003367D01*
X031567Y003411D01*
X031546Y003456D01*
X031529Y003503D01*
X031515Y003551D01*
X031505Y003600D01*
X031499Y003650D01*
X031497Y003700D01*
M02*
